<svg width="360" height="229" viewBox="0 0 360 229" fill="none" xmlns="http://www.w3.org/2000/svg">
<g clip-path="url(#clip0)">
<rect width="360" height="229" fill="white"/>
<rect width="360" height="229" fill="white"/>
<path d="M345.074 148.643L338.587 149.083C338.188 149.329 337.755 149.514 337.303 149.632C332.78 149.673 329.416 147.19 326.193 144.362C325.004 142.836 323.585 141.457 322.962 139.529C322.69 136.797 324.451 135.856 326.562 135.205C330.15 134.696 333.692 134.76 337.114 136.126C339.715 137.38 342.391 138.519 344.26 140.928L345.189 141.986C345.752 142.891 346.162 143.899 346.737 144.784C348.242 147.071 347.232 148.088 345.074 148.643Z" fill="#37C2FB"/>
<path d="M335.045 112.107L337.732 109.603C341.034 109.41 340.268 112.075 340.513 113.837C340.932 116.868 339.965 119.645 338.528 122.273C337.906 122.913 338.206 123.899 337.682 124.579C336.593 125.664 335.43 126.638 333.996 127.247C333.764 127.273 333.53 127.251 333.307 127.182C333.084 127.113 332.879 126.999 332.703 126.846C330.607 121.467 331.12 116.51 335.045 112.107Z" fill="#3CC2FA"/>
<path d="M353.16 139.469C354.999 138.689 356.286 135.686 358.426 137.012C360.566 138.337 360.112 141.121 359.449 143.408C359.022 144.877 358.48 146.319 357.991 147.773C357.459 148.739 356.729 149.601 355.843 150.312C354.634 151.236 353.81 153.168 351.815 152.4C349.551 151.526 349.642 149.393 349.814 147.567C350.093 144.607 351.052 141.81 353.16 139.469Z" fill="#42C7FD"/>
<path d="M337.19 209.103L337.729 206.467C338.309 205.846 338.661 205.05 339.448 204.591L345.63 201.048C347.601 201.52 350.763 199.692 351.381 202.3C351.894 204.426 349.274 206.025 347.237 207.213C344.155 209.006 340.657 209.018 337.19 209.103Z" fill="#46C7FD"/>
<path d="M323.369 140.223C324.629 141.098 325.582 142.334 326.096 143.762C328.076 146.492 327.339 149.624 327.451 152.63C326.629 158.941 326.629 158.941 317.663 158.036C314.333 155.892 312.331 152.532 309.869 149.583C308.911 145.834 308.152 142.039 307.595 138.213C307.18 133.897 304.96 130.846 300.77 129.695C296.864 128.621 294.295 131.059 292.062 133.834C291.281 134.802 290.551 135.845 289.273 136.242C283.606 135.544 277.85 136.118 272.442 137.921C268.731 139.128 265.686 136.999 262.454 135.837C260.904 135.289 259.478 134.473 257.982 133.799C256.758 133.246 255.516 132.726 254.376 132.004C249.097 128.832 243.194 126.94 238.19 124.276C243.274 127.543 250.071 128.548 255.057 133.017C255.825 136.084 254.007 138.622 253.341 141.4C252.153 143.793 251.107 146.252 250.206 148.764C248.247 154.475 248.222 154.467 242.172 153.655C235.496 151.644 228.893 149.4 222.296 147.135C221.404 146.791 220.558 146.342 219.776 145.798C218.982 145.258 218.185 144.717 217.752 143.81C217.322 142.031 217.942 140.48 218.808 138.977C221.266 136.83 224.465 136.476 227.397 135.478C230.548 135.114 233.713 135.393 236.873 135.315C240.679 135.222 244.019 136.348 246.262 138.552C244.892 137.687 243.263 135.903 240.812 135.536C239.401 135.569 238.044 135.239 236.671 134.993C234.994 134.845 233.314 134.882 231.633 134.892C229.897 134.867 228.173 134.923 226.511 135.526C225.589 135.777 224.757 136.247 223.82 136.476C219.945 137.423 219.153 136.881 218.882 132.658C218.557 127.631 217.74 122.642 217.204 117.633C216.715 113.048 213.857 109.062 214.023 104.347C215.048 102.238 217.022 102.14 218.974 101.964C219.789 101.897 220.608 101.897 221.422 101.964C229.805 103.238 238.085 105.146 246.521 106.081C250.234 106.924 253.998 107.531 257.79 107.898C258.731 108.11 259.64 108.438 260.497 108.876C263.058 110.163 265.924 110.251 268.633 110.954C267.04 110.51 265.381 110.331 263.798 109.823C260.374 107.667 258.192 104.281 255.418 101.474C253.157 98.2541 252.073 94.7077 252.383 90.7666C254.458 81.4468 257.933 72.5267 260.428 63.325C260.715 62.2693 261.196 61.2615 262.241 60.6909C262.608 60.4047 263.047 60.2201 263.511 60.1565C263.975 60.0928 264.448 60.1524 264.881 60.329C271.955 62.8424 279.239 64.7627 286.067 67.9522C290.369 69.2894 291.476 72.1924 289.977 76.1887C288.986 78.8278 289.829 81.8942 287.982 84.3021C286.804 85.0561 285.885 84.5057 285.032 83.6913C284.228 82.9373 283.611 81.9319 282.694 81.3362C280.466 79.886 278.109 76.1334 275.605 78.6217C273.489 80.7229 276.373 83.7994 277.892 86.1469C279.41 88.4945 282.082 89.4797 284.177 91.1512C288.53 92.335 291.286 95.2028 293.473 99.0408C299.208 109.095 309.075 114.541 318.677 119.902C324.293 123.044 326.255 126.952 325.366 132.899C325.133 134.46 325.131 135.963 323.574 137.034C322.396 137.846 322.242 139.085 323.369 140.223Z" fill="#E7F4FE"/>
<path d="M253.539 91.2875C253.246 95.0701 255.099 98.1566 256.752 101.316C256.868 103.404 259.176 104.935 258.296 107.28C257.285 109.489 255.346 109.066 253.786 108.46C252.052 107.787 250.348 107.923 248.615 107.82C243.887 105.974 238.785 106.019 233.902 104.955C231.529 104.184 230.93 102.103 230.253 100.083C226.217 92.9417 223.63 85.1219 220.294 78.9639C219.483 77.3273 219.007 78.2477 219.488 77.8341C223.625 84.9151 225.982 92.8383 230.116 99.9244C230.245 101.246 231.604 102.446 230.528 103.883C227.357 104.456 224.371 102.388 221.182 103.243L219.066 103.208C214.708 102.426 211.602 105.064 208.32 107.144C206.894 108.047 205.89 109.666 203.905 109.59C201.975 108.725 201.47 106.867 200.757 105.152C200.243 103.621 199.486 102.199 198.853 100.721C194.582 92.5256 190.24 84.3654 187.558 75.4688C187.118 73.0515 187.101 70.5787 187.506 68.1558C188.227 64.5144 190.08 61.2841 191.342 57.8319C192.629 55.928 194.366 54.4603 196.083 52.97C203.367 46.0983 212.423 44.8072 221.468 46.9381C232.888 49.6313 243.969 53.7467 255.187 57.3174C255.879 57.5368 256.399 58.2908 256.989 58.7952C258.276 61.7834 256.399 64.3026 255.658 66.9479C254.345 71.6257 253.457 76.4724 250.796 80.6862C248.816 82.6456 247.478 81.831 246.541 79.6498C244.932 75.9126 242.937 72.3544 241.478 68.5542C243.902 74.4374 246.711 80.1415 249.673 85.7674C251.03 87.5679 251.223 90.1578 253.539 91.2875Z" fill="#6B50C2"/>
<path d="M184.921 69.6333L187.833 63.0758C191.063 64.4706 188.14 66.4069 188.289 68.0663C188.289 70.811 188.14 73.5558 188.377 76.2855C190.695 84.5198 194.944 91.9007 198.882 99.4188C199.912 101.941 200.821 104.512 201.854 107.034C202.418 109.05 204.283 110.46 204.556 112.619C204.463 114.235 203.636 115.613 203.047 117.06C200.698 122.834 200.986 128.391 204.386 133.728C205.565 135.575 206.987 137.369 206.508 139.802C206.325 156.911 206.508 174.009 206.42 191.106C206.387 198.499 205.805 199.041 198.145 199.091C195.109 199.106 192.073 199.053 189.039 199.076C185.644 199.101 184.315 197.748 184.38 194.247C184.578 183.268 184.452 172.289 184.452 161.31C184.452 132.447 184.46 103.586 184.475 74.726C184.475 73.0218 184.029 71.2602 184.921 69.6333Z" fill="#6B50C2"/>
<path d="M293.897 72.252C296.375 73.1013 298.363 74.6881 300.325 76.337C301.23 78.6093 300.811 80.9858 300.677 83.2903C300.384 88.3613 301.903 92.799 304.896 96.8394C308.293 101.371 312.507 104.592 318.495 104.985C319.95 105.079 321.323 105.375 322.205 106.661L323.46 111.742C324.231 114.24 324.072 116.88 324.987 119.42C325.758 121.529 324.529 123.533 321.935 122.015C311.206 115.747 299.973 110.018 292.958 99.2209C287.816 91.309 287.88 82.8185 290.354 74.1591C290.765 72.6741 291.796 71.2288 293.897 72.252Z" fill="#E7F4FE"/>
<path d="M185.504 224.202C185.504 219.474 185.504 214.747 185.504 210.019C186.248 209.072 187.3 208.716 188.427 208.722C198.343 208.747 208.27 208.046 218.169 209.089C220.375 210.816 221.27 213.663 223.541 215.357C224.3 216.925 224.736 218.625 224.824 220.359C225.042 223.312 223.975 225.374 220.719 225.437C209.977 225.642 199.234 225.642 188.491 225.437C187.349 225.419 186.287 225.109 185.504 224.202Z" fill="#292562"/>
<path d="M219.079 209.95H185.765C183.517 209.576 183.804 207.852 183.806 206.311C183.806 161.876 183.819 117.442 183.845 73.0073C183.845 71.7876 183.589 70.4632 184.804 69.5529C184.786 110.325 184.834 151.1 184.65 191.872C184.63 196.252 185.563 198.28 190.321 197.659C194.97 197.053 201.022 199.654 203.998 196.511C206.721 193.643 204.742 187.817 204.765 183.292C204.863 169.806 204.783 156.32 204.824 142.832C204.824 141.176 204.262 139.34 205.862 137.983C206.156 137.951 206.452 138.032 206.686 138.208C206.92 138.384 207.075 138.643 207.118 138.928C207.373 155.522 207.148 172.118 207.223 188.715C207.256 196.047 207.256 196.04 214.543 196.17C216.589 196.207 218.68 196.03 220.593 197.028C221.403 197.541 221.557 198.275 221.342 199.148C218.274 201.011 214.924 199.567 211.718 199.849C209.007 200.098 207.207 200.746 207.115 203.862C207.023 207.236 209.125 207.546 211.735 207.603C214.696 207.68 217.729 207.104 220.603 208.351C220.832 208.486 221.012 208.686 221.119 208.924C221.226 209.163 221.255 209.428 221.201 209.683C220.582 210.396 219.867 210.454 219.079 209.95Z" fill="#4B3985"/>
<path d="M302.482 77.7963C310.95 84.3574 316.857 92.7893 320.653 102.762C320.55 105.494 318.625 104.898 317.043 104.65C311.553 103.795 307.592 100.655 304.619 96.096C301.823 91.9571 300.349 87.4281 300.763 82.3948C300.911 80.7228 300.738 78.8844 302.482 77.7963Z" fill="#E5F2FD"/>
<path d="M185.687 224.283C196.802 224.283 207.92 224.178 219.031 224.352C223.186 224.418 225.209 223.589 223.407 219.154C222.91 217.928 223.15 216.438 223.041 215.067C223.157 214.864 223.276 214.662 223.386 214.457C225.067 214.074 224.367 210.232 227.438 211.858C228.519 213.701 228.468 215.746 228.365 217.722C228.169 221.503 229.94 222.915 233.771 222.888C245.734 222.806 257.698 222.806 269.663 222.888C272.642 222.908 275.759 222.285 278.519 224.038C279.204 224.83 279.188 225.619 278.503 226.404C277.013 227.525 275.234 227.566 273.484 227.569C264.232 227.569 254.98 227.748 245.733 227.483C243.754 227.63 241.766 227.512 239.787 227.51C235.411 227.939 230.499 225.779 226.947 230.067C225.933 230.406 224.823 230.376 223.832 229.981C222.434 228.02 220.398 227.488 218.066 227.495C213.635 227.495 209.202 227.48 204.77 227.495C202.775 227.586 200.782 227.527 198.79 227.466C194.39 227.221 189.818 228.633 185.661 226.176C184.683 225.54 184.691 224.909 185.687 224.283Z" fill="#26347D"/>
<path d="M158.742 170.275C162.363 167.523 166.007 168.211 169.486 170.428C172.793 172.535 173.93 175.794 173.407 179.438C172.707 184.253 169.366 186.696 164.702 187.724C164.551 187.838 164.366 187.901 164.175 187.906C163.983 187.91 163.795 187.855 163.638 187.749C155.456 185.965 152.458 181.257 155.043 174.257C157.704 175.116 157.116 177.779 158.157 179.538C159.725 182.178 162.078 183.217 165.089 182.649C167.69 182.148 168.916 180.234 168.922 177.874C168.922 175.313 167.471 173.431 164.891 172.573C163.764 172.2 162.75 172.428 161.492 174.057C164.687 171.659 166.608 172.961 167.97 174.993C169.413 177.145 169.405 179.546 167.316 181.413C165.115 183.377 162.611 183.252 160.24 181.663C156.897 179.423 156.408 175.321 158.742 170.275Z" fill="#F87ADD"/>
<path d="M249.755 80.5377C252.142 73.348 254.531 66.1583 256.92 58.9685C259.021 59.0157 261.339 58.5021 262.488 60.9855L253.42 90.9203C252.72 90.9079 252.375 92.9051 251.438 91.3098C250.457 89.6327 249.627 87.8713 248.732 86.147C247.635 84.0333 248.507 82.252 249.755 80.5377Z" fill="#2B2764"/>
<path d="M293.792 72.235C289.431 73.8064 290.189 77.8884 289.856 80.9587C288.574 92.8552 293.68 102.229 303.188 109.351C309.01 113.713 315.087 117.765 321.662 121.033C322.441 121.425 323.188 122.567 324.081 121.565C324.492 121.105 324.533 120.008 324.289 119.369C323.355 116.933 323.57 114.442 323.627 111.947C325.024 113.945 324.556 116.443 325.501 118.572C326.2 123.151 327.028 127.715 327.417 132.335C327.549 133.901 327.697 135.475 326.218 136.611C324.66 137.328 323.012 137.993 323.76 140.211C322.098 139.177 322.283 137.808 323.427 136.689C324.627 135.517 324.344 134.148 324.595 132.794C325.686 126.906 323.118 123.631 317.766 120.72C306.464 114.577 295.443 107.785 289.732 95.5758C288.403 92.7403 284.268 95.0012 283.017 92.0408C285.483 91.3089 287.131 90.1272 286.132 87.2093C285.965 86.7796 285.929 86.3132 286.028 85.8646C286.127 85.4161 286.356 85.0038 286.69 84.6761C288.766 80.7789 288.18 76.3171 289.472 72.215C290.189 69.9416 286.521 70.2414 285.955 68.3752C288.873 69.0697 291.64 70.0565 293.792 72.235Z" fill="#C7EBFD"/>
<path d="M301.745 60.8871C305.307 60.3195 308.833 59.5813 312.431 60.7598C313.579 61.1365 315.182 60.8973 315.485 62.4271C315.762 63.8602 314.37 64.6085 313.467 65.4154C308.515 69.8521 302.925 71.2012 296.465 69.3099C293.302 68.3834 293.223 67.0445 295.088 64.8122C296.839 62.7122 298.811 60.9507 301.745 60.8871Z" fill="#36BFF8"/>
<path d="M163.779 219.702C157.388 217.963 154.247 213.574 153.205 207.489C153.047 206.568 152.714 205.496 153.513 204.799C154.592 203.86 155.623 204.781 156.605 205.238C159.324 206.5 161.334 208.519 162.885 210.982C165.25 213.69 164.275 216.719 163.779 219.702Z" fill="#37BBF4"/>
<path d="M165.523 201.752C167.131 199.237 169.166 197.226 172.02 196.152C173.086 195.751 174.236 195.161 175.231 195.948C176.386 196.861 175.506 198.075 175.21 199.079C173.888 203.574 170.355 205.748 166.306 207.337C163.236 206.819 163.087 205.766 165.523 201.752Z" fill="#37B9F2"/>
<path d="M158.88 170.241C159.234 173.151 157.399 176.04 159.018 179.007C160.637 181.975 164.872 183.069 166.909 180.729C167.957 179.522 168.627 178.097 167.604 176.406C166.771 175.029 166.008 173.433 164.21 173.504C161.665 173.607 163.62 176.665 161.52 177.674C160.537 175.748 160.204 173.768 161.774 172.218C163.638 170.372 165.616 171.769 167.339 172.856C169.978 174.52 169.724 177.265 169.194 179.688C168.703 181.935 166.995 183.47 164.513 183.737C161.321 184.073 159.005 182.59 157.546 179.9C156.589 178.135 156.019 176.148 155.281 174.263C155.642 172.17 157.139 171.098 158.88 170.241Z" fill="#D37AE3"/>
<path d="M301.611 60.9428L294.992 64.8423C298.619 56.9145 310.853 49.9318 318.942 51.529C313.052 51.9864 308.087 54.6602 303.436 57.986C302.53 58.6355 300.387 58.8175 301.611 60.9428Z" stroke="#22B573" stroke-width="3" stroke-miterlimit="10"/>
<path d="M302.252 77.6548C300.427 84.1341 301.963 90.0944 305.418 95.76C306.087 96.9995 306.095 97.8963 304.21 97.8106C298.65 91.2331 297.892 83.8796 300.223 76.0299C300.696 76.0863 301.14 76.2704 301.501 76.5594C301.862 76.8484 302.123 77.2293 302.252 77.6548Z" fill="#4394FB"/>
<path d="M198.264 229.712H185.504V226.179L199.242 226.193C200.463 227.729 199.276 228.7 198.264 229.712Z" fill="#292663"/>
<path d="M304.116 98.0204C305.03 97.6404 305.208 96.8778 305.265 96.0498C308.433 100.383 312.709 103.07 318.228 103.966C319.409 104.157 320.473 104.315 320.981 102.971C321.991 104.017 322.138 105.349 322.364 106.649C314.944 106.3 308.422 104.262 304.116 98.0204Z" fill="#5CA3FE"/>
<path d="M165.854 201.922C166.132 203.713 162.412 206.022 166.686 207.299C163.756 209.401 164.898 212.33 164.809 215.005C164.748 216.855 164.704 218.708 164.651 220.561C164.322 220.986 163.994 220.986 163.667 220.561C163.611 220.261 163.601 219.956 163.637 219.654C163.967 216.728 164.072 213.824 162.694 211.052C164.563 205.76 163.249 200.313 163.612 194.946C163.764 192.615 163.612 190.269 163.612 187.931L164.74 187.906C165.317 192.568 163.313 197.395 165.854 201.922Z" fill="#456295"/>
<path d="M187.809 67.4508C187.536 65.8554 189.773 64.2677 187.824 62.6672C188.598 60.6787 189.508 58.8 191.49 57.7764C192.743 61.6487 189.533 64.1758 188.753 67.4381C188.445 67.8873 188.132 67.9128 187.809 67.4508Z" fill="#5B439E"/>
<path d="M163.845 220.291H164.375C164.385 223.431 164.395 226.572 164.405 229.712L163.835 229.692C163.839 226.558 163.842 223.425 163.845 220.291Z" fill="#465F92"/>
<path d="M196.339 53.0659C195.199 55.1256 193.355 56.5817 191.207 57.7765C191.797 55.2428 193.67 53.8111 196.339 53.0659Z" fill="#5B439E"/>
<path d="M302.329 230.232L300.835 229.948C300.075 229.766 299.368 229.505 299.061 228.668C298.777 227.321 299.315 226.18 299.963 225.076C303.186 219.686 313.933 214.624 320.049 215.735C322.015 216.092 324.136 216.408 325.215 218.544C323.948 223.429 320.401 226.39 316.532 229.101C315.641 230.849 313.155 229.86 312.281 231.631C309.274 232.33 306.231 231.991 303.196 231.945C303.495 231.34 304.759 231.292 304.349 230.455C304.192 230.126 303.039 230.293 302.329 230.232Z" fill="#E2F1FD"/>
<path d="M336.034 196.13L331.342 205.57C329.008 202.265 324.841 201.028 322.364 197.885C322.48 196.748 323.371 196.343 324.277 196.035C331.442 193.614 334.94 188.459 335.718 181.271C335.882 179.579 335.813 177.94 334.633 176.541C334.335 175.959 334.122 175.339 334.002 174.699C333.843 174.055 333.745 173.395 333.539 172.763C333.024 171.786 332.251 171.014 331.607 170.147C330.319 168.398 329.603 166.459 331.257 164.677C332.959 162.846 334.675 164.177 336.279 165.142C338.793 167.343 341.945 168.852 343.784 171.798C346.102 174.359 346.326 177.138 344.657 180.104C341.051 185.061 339.885 191.293 336.034 196.13Z" fill="#F9C5E6"/>
<path d="M336.05 196.008C338.541 190.369 339.883 184.114 344.603 179.662C343.811 183.047 342.411 186.205 340.77 189.228C338.058 194.251 338.304 199.428 339.561 204.726C339.392 205.745 338.567 206.203 337.846 206.748C337.777 203.758 337.724 200.763 337.629 197.773C337.611 196.777 338.03 195.262 336.05 196.008Z" fill="#D0B7C7"/>
<path d="M343.463 171.419C340.989 169.335 337.813 168.189 335.663 165.678C335.446 165.203 335.42 164.665 335.591 164.172C336.777 161.005 336.223 157.699 336.38 154.449C336.469 152.604 336.146 150.678 337.398 149.044L338.63 149.088C338.61 150.475 338.729 151.881 338.546 153.244C337.627 159.992 338.867 166.142 343.463 171.419Z" fill="#D1B8C8"/>
<path d="M322.342 197.853C325.543 199.947 330.284 200.355 330.917 205.27L329.775 207.988C328.529 209.05 327.437 208.274 326.357 207.689C321.706 205.168 317.277 202.27 312.786 199.513C311.302 198.607 309.572 197.343 312.738 196.199C313.446 196.11 314.166 196.141 314.864 196.291C316.443 196.795 318.087 196.776 319.721 196.837C320.692 196.936 321.651 197.067 322.342 197.853Z" fill="#E5F2FB"/>
<path d="M325.65 218.578C315.037 214.958 303.673 219.204 299.268 228.437C297.001 228.825 295.642 228.082 295.562 225.735C300.205 219.532 306.508 215.706 314.222 213.903C315.93 213.758 317.649 213.79 319.349 214C320.775 214.296 322.177 214.684 323.546 215.162C324.624 215.633 325.908 215.857 326.334 217.159C326.398 217.759 326.36 218.315 325.65 218.578Z" fill="#529DFB"/>
<path d="M313.002 196.985C312.771 197.418 310.716 197.097 312.071 197.883C317.973 201.317 323.385 205.597 329.777 208.225C329.194 209.484 329.374 211.057 328.14 212.047C327.94 211.948 327.739 211.851 327.539 211.756C320.844 205.645 312.887 201.499 304.745 197.634C304.308 197.461 303.935 197.165 303.672 196.786C303.19 194.645 304.119 193.145 305.899 192.028C308.958 192.717 311.601 193.998 313.002 196.985Z" fill="#BEC8CE"/>
<path d="M326.205 217.347C325.067 217.068 323.767 217.11 322.934 216.103C324.387 214.477 325.334 212.269 328.093 212.15C328.185 212.18 328.284 212.186 328.38 212.168C328.476 212.15 328.564 212.108 328.636 212.047L326.205 217.347Z" fill="#E2F1FD"/>
<path d="M222.086 146.1L241.961 152.589C243.37 153.418 245.426 153.157 246.201 155.07C247.099 156.646 247.053 158.388 247.06 160.106C247.101 171.22 247.101 182.334 247.06 193.447C247.06 195.159 247.142 196.919 245.956 198.385C238.887 200.191 231.806 199.995 224.717 198.516C223.086 196.668 223.467 194.389 223.457 192.24C223.408 181.445 223.457 170.624 223.426 159.817C223.426 158.1 223.564 156.365 223.007 154.695C222.861 151.816 220.24 149.19 222.086 146.1Z" fill="#6A50C2"/>
<path d="M220.851 197.87C215.928 197.619 209.645 200.006 206.46 196.869C203.518 193.969 205.629 187.913 205.587 183.257C205.47 170.245 205.53 157.249 205.566 144.243C205.566 142.411 205.045 140.444 206.512 138.835C208.936 137.492 210.205 140.016 212.113 140.399C212.837 140.762 213.551 141.15 214.284 141.5C215.157 141.926 216.108 142.178 216.984 142.621C217.505 142.914 217.635 143.552 218.172 143.822L219.679 144.988C218.607 147.193 219.504 149.287 220.046 151.409C223.729 165.801 222.293 180.452 222.303 195.027C222.308 196.128 221.933 197.216 220.851 197.87Z" fill="#6A50C2"/>
<path d="M311.041 149.459C313.994 151.415 315.886 154.284 317.71 157.197C317.889 157.309 318.04 157.458 318.154 157.634C318.268 157.809 318.343 158.007 318.372 158.213C318.17 159.876 318.372 161.539 318.372 163.208C318.262 163.636 318.047 164.032 317.746 164.361C314.302 166.016 310.984 167.946 307.291 169.064C305.651 168.791 304.141 168.014 302.978 166.844C302.291 162.21 299.273 158.647 297.273 154.612C297.531 153.66 298.306 153.103 298.955 152.433C300.539 151.031 300.722 148.421 303.071 147.669C306.015 147.019 308.831 146.915 311.041 149.459Z" fill="#111110"/>
<path d="M310.959 149.632C308.309 148.747 305.49 148.488 302.722 148.875C300.012 149.865 298.736 147.945 297.465 146.155C296.57 144.892 296.292 143.243 295.074 142.165C294.727 141.882 294.4 141.581 294.061 141.286C292.893 140.19 291.31 139.357 291.606 137.331C295.644 130.275 302.839 130.172 308.948 137.079L310.959 149.632Z" fill="#F9C6E8"/>
<path d="M286.865 84.7138C287.075 85.6231 287.262 86.535 287.5 87.4368C288.854 92.6038 288.375 93.1295 283.289 92.0582C278.623 89.4324 274.873 86.0417 274.023 80.4312C273.466 76.7591 274.666 75.8647 278.135 77.2125C281.925 78.6824 284.658 81.3979 286.865 84.7138Z" fill="#3CC5FD"/>
<path d="M231.577 133.677L237.314 133.622C237.635 134.866 236.986 135.493 235.892 135.861C233.208 136.229 230.417 135.257 227.802 136.485L219.399 139.266C218.742 139.574 218.501 140.33 217.846 140.644C217.501 140.765 217.135 140.816 216.77 140.796C216.404 140.775 216.047 140.683 215.719 140.524C215.409 140.313 215.17 140.018 215.031 139.677C214.891 139.335 214.857 138.962 214.934 138.602C216.731 135.844 216.947 132.936 216.428 129.705C215.368 123.122 214.469 116.523 212.36 110.153C211.878 108.693 211.469 107.169 211.952 105.587C212.553 104.671 213.236 103.905 214.494 104.507C218.37 113.048 219.664 122.166 219.944 131.344C220.088 136.07 221.392 136.652 225.196 134.59C225.583 134.381 226.12 134.438 226.588 134.371C228.172 133.598 230.006 134.54 231.577 133.677Z" fill="#4D9BFD"/>
<path d="M308.678 137.054C307.382 136.273 306.088 135.493 304.794 134.713C300.229 131.984 295.25 133.222 291.691 137.967C290.081 139.068 289.588 138.097 289.289 136.765C289.335 136.295 289.534 135.849 289.857 135.489C291.673 131.244 294.567 128.037 299.701 128.475C304.898 128.912 307.719 132.23 308.678 137.054Z" fill="#2582FD"/>
<path d="M289.86 135.478L289.735 136.5C288.249 140.738 285.409 139.913 282.422 138.603C283.526 137.078 283.526 137.078 285.997 137.101C281.966 136.279 278.559 138.785 274.877 139.669C269.986 140.844 265.859 140.219 262.171 136.699C261.807 135.885 261.787 135.107 262.426 134.404C267.322 136.974 272.286 137.496 277.518 135.371C281.577 133.732 285.75 134.209 289.86 135.478Z" fill="#CDBBCE"/>
<path d="M262.369 134.396C262.369 135.033 262.369 135.67 262.369 136.306C262.941 139.634 261.315 142.505 260.397 145.508C259.15 149.588 257.597 153.572 256.574 157.725C254.559 158.861 252.68 158.703 250.944 157.151C250.815 156.943 250.686 156.727 250.557 156.519C250.502 156.288 250.498 156.049 250.545 155.817C250.592 155.585 250.689 155.366 250.83 155.175C255.824 148.912 258.54 141.878 258.045 133.761C258.038 133.538 258.077 133.316 258.16 133.109C258.243 132.902 258.369 132.714 258.529 132.557L262.369 134.396Z" fill="#C6B4C7"/>
<path d="M233.196 104.299C238.172 104.439 243.049 105.045 247.661 106.861C247.338 107.309 246.953 107.357 246.507 107.005C237.834 106.404 229.362 104.776 220.859 103.19C224.065 101.567 227.162 103.435 230.315 103.431C231.355 103.44 232.364 103.744 233.196 104.299V104.299Z" fill="#65559F"/>
<path d="M244.88 154.376L241.959 152.576C246.505 154.152 248.446 152.068 249.334 147.894C249.861 145.459 250.783 143.064 252.516 141.086C252.681 140.924 252.901 140.823 253.137 140.804C253.372 140.784 253.607 140.847 253.799 140.98C254.642 146.079 251.283 150.357 250.885 155.215L250.714 155.617C248.42 156.788 246.631 155.667 244.88 154.376Z" fill="#C1CBD5"/>
<path d="M254.694 132.557L235.116 123.696L235.632 122.547C242.042 125.416 248.949 127.157 254.799 131.31C255.198 131.763 255.163 132.179 254.694 132.557Z" fill="#BDC7CF"/>
<path d="M317.404 157.96C317.302 157.837 317.242 157.686 317.233 157.528C317.223 157.37 317.265 157.213 317.352 157.079C318.464 156.395 319.531 156.019 320.889 156.66C324.552 158.397 326.161 156.895 326.2 153.165C327.255 154.66 326.718 156.39 326.926 158.008C324.887 160.043 326.926 163.349 324.594 165.298C321.936 165.818 319.479 165.566 317.489 163.515C317.407 163.402 317.36 163.268 317.356 163.129C317.352 162.99 317.39 162.853 317.466 162.735C320.855 161.101 320.759 159.511 317.404 157.96Z" fill="#CAABC0"/>
<path d="M227.702 136.342C230.347 134.245 233.53 135.796 236.382 135.117C237.863 134.115 239.749 135.545 241.205 134.323C246.276 136.362 247.639 137.629 248.802 141.978C243.285 134.085 235.193 136.37 227.702 136.342Z" fill="#87BCFE"/>
<path d="M257.627 106.374C257.901 104.604 255.074 103.35 256.748 101.349L264.198 109.233C263.439 111.67 261.932 110.641 260.503 109.977L258.596 109.178C257.48 108.502 258.498 107.136 257.627 106.374Z" fill="#2A2B2E"/>
<path d="M214.523 104.41L212.308 105.343C209.238 107.038 207.71 111.088 203.315 110.75C203.052 110.031 203.147 109.413 203.889 108.991C208.345 105.517 212.344 100.97 219.149 103.052L214.523 104.41Z" fill="#5E58AB"/>
<path d="M260.207 109.764C261.361 109.257 262.875 110.459 263.834 109.004C266.234 110.431 269.255 109.336 271.612 111.171C267.69 111.642 263.892 111.247 260.207 109.764Z" fill="#B0BAC2"/>
<path d="M254.386 132.695L254.508 131.379L258.496 132.695C258.496 133.023 258.496 133.351 258.496 133.679C255.785 135.614 256.154 139.465 253.419 141.389L252.223 141.371C252.353 138.343 254.562 135.797 254.386 132.695Z" fill="#ACB6BD"/>
<path d="M257.516 106.06C258.612 106.774 258.497 107.887 258.489 108.965C254.361 109.22 250.437 108.181 246.521 107.096L247.687 106.935C249.898 107.112 252.135 106.856 254.303 107.716C255.755 108.289 257.204 108.053 257.516 106.06Z" fill="#665A98"/>
<path d="M241.388 134.555C239.928 136.121 238.004 135.257 236.256 135.314L237.229 133.734L241.388 134.555Z" fill="#519DFD"/>
<path d="M218.068 140.563L219.149 139.623C218.814 140.997 218.479 142.371 218.145 143.744L217.311 143.321C216.418 142.033 216.979 141.214 218.068 140.563Z" fill="#519DFD"/>
<path d="M231.694 133.768C230.159 134.648 228.311 134.221 226.562 134.211C228.148 133.546 229.947 133.772 231.694 133.768Z" fill="#69ABFE"/>
<path d="M229.517 99.8549C224.025 92.2815 221.757 83.2328 218.008 74.8522C223.551 82.5041 226.675 91.3478 230.554 99.8195C230.218 100.277 229.872 100.288 229.517 99.8549Z" fill="#5A44A2"/>
<path d="M197.894 99.6371C193.961 92.3295 189.769 85.1419 187.785 76.9396C187.997 76.5602 188.308 76.2458 188.684 76.0299L199.76 100.602C198.7 101.154 198.431 100.124 197.894 99.6371Z" fill="#59439F"/>
<path d="M249.942 80.8625L248.919 86.6287L238.537 64.8423C241.12 65.4648 241.611 66.613 242.158 67.9218C243.76 71.7489 245.489 75.5352 247.182 79.3317C247.705 80.5079 248.202 81.8142 249.942 80.8625Z" fill="#58439F"/>
<path d="M204.254 108.926L204.301 110.965C204.327 111.071 204.329 111.181 204.308 111.288C204.287 111.395 204.243 111.498 204.179 111.589C204.114 111.681 204.031 111.759 203.932 111.821C203.834 111.883 203.724 111.926 203.607 111.948C202.159 110.628 201.208 108.921 200.893 107.073C200.506 105.949 199.47 104.637 201.825 104.293L204.254 108.926Z" fill="#3D3065"/>
<path d="M202.041 104.457C200.877 105.127 201.226 106.241 201.125 107.237C199.428 104.924 198.86 102.212 198.05 99.5828L200.089 100.559L202.041 104.457Z" fill="#4A3983"/>
<path d="M188.348 75.7051L187.802 76.6186C187.797 73.4816 187.791 70.3454 187.785 67.2101L188.355 67.1975C188.353 70.0334 188.351 72.8693 188.348 75.7051Z" fill="#4B3985"/>
<path d="M229.413 99.6205L230.482 99.5828L233.405 104.287C232.294 104.287 231.137 104.428 230.418 103.326L229.413 99.6205Z" fill="#5A449E"/>
<path d="M203.296 112.159L203.943 111.185C206.536 109.059 208.365 105.87 212.198 105.471C215.224 114.279 216.983 123.338 217.922 132.573C218.211 135.418 217.899 137.825 215.084 139.31C214.757 140.836 213.699 141.388 212.229 141.388C209.969 141.438 208.605 139.446 206.569 138.982L205.703 138.264C198.08 130.174 198.371 121.373 203.296 112.159Z" fill="#E6F3FE"/>
<path d="M194.712 208.96C192.954 208.96 191.169 208.769 189.445 208.998C185.317 209.546 184.486 207.719 184.372 203.986C184.238 199.632 185.642 198.135 190.049 198.58C193.394 198.926 196.767 198.926 200.112 198.58C204.651 198.083 204.826 200.461 204.888 203.864C204.953 207.456 204.326 209.606 199.986 209.002C198.257 208.759 196.469 208.96 194.712 208.96Z" fill="#6A4FC0"/>
<path d="M220.86 199.716C220.86 202.809 220.86 205.902 220.86 208.994C216.883 209.019 212.907 208.962 208.936 209.098C206.477 209.182 205.22 208.229 205.65 205.855C206.093 203.412 203.871 199.474 208.182 199.003C212.338 198.55 216.742 197.889 220.86 199.716Z" fill="#694FBF"/>
<path d="M278.149 224.413L232.825 224.397C226.519 224.397 226.612 224.397 226.463 217.836C226.412 215.548 227.385 213.038 225.569 210.95C225.272 210.304 225.423 209.795 226.024 209.424C230.17 207.954 234.471 208.707 238.692 208.71C245.149 208.71 251.627 208.186 258.066 209.066C260.42 210.179 260.477 213.389 262.913 214.444C263.479 215.588 263.576 216.905 263.186 218.119C263.522 217.048 263.186 215.85 263.612 214.79C263.859 214.557 264.166 214.397 264.499 214.325C264.833 214.254 265.179 214.275 265.502 214.386C266.177 214.62 266.636 216.506 267.594 214.64C273.756 214.927 276.737 217.437 278.454 223.764C278.352 223.975 278.252 224.194 278.149 224.413Z" fill="#292562"/>
<path d="M278.2 229.712H246.056C245.074 228.706 244.393 227.627 245.104 226.214L278.185 226.179L278.692 226.649C279.246 227.773 279.126 228.8 278.2 229.712Z" fill="#292663"/>
<path d="M224.229 229.691L205.628 229.712C204.578 228.723 203.885 227.657 204.641 226.258C209.913 226.258 215.192 226.369 220.456 226.186C223.478 226.082 224.541 227.175 224.229 229.691Z" fill="#292663"/>
<path d="M238.4 229.712H226.613C226.316 227.243 227.281 225.998 230.324 226.2C233.325 226.393 236.356 226.258 239.373 226.27C240.111 227.651 239.399 228.714 238.4 229.712Z" fill="#292663"/>
<path d="M225.992 209.994C225.97 210.308 225.957 210.622 225.952 210.937C225.999 213.063 226.136 215.269 223.213 214.963C222.796 212.816 224.275 211.509 225.067 209.888C225.129 209.818 225.205 209.764 225.29 209.731C225.374 209.697 225.464 209.686 225.553 209.696C225.643 209.706 225.728 209.738 225.804 209.79C225.88 209.842 225.944 209.911 225.992 209.994V209.994Z" fill="#3E3A7A"/>
<path d="M288.4 185.631C284.691 184.493 280.703 184.383 277.277 182.17C273.548 179.751 271.478 176.242 269.663 172.461C267.241 167.856 267.931 163.516 270.814 159.363C271.235 159.019 271.74 158.786 272.281 158.686C273.79 158.599 274.819 159.146 275.059 160.728C275.038 162.924 274.07 164.956 273.864 167.125C273.349 172.471 276.4 177.203 282.145 179.951C283.373 180.393 284.613 180.784 285.939 180.792C287.426 180.84 288.909 180.623 290.315 180.15C292.67 179.584 294.529 178.274 296.04 176.449C301.646 168.44 299.901 161.377 291.198 156.859C289.576 156.283 287.934 155.814 286.186 155.861C284.693 155.844 283.275 156.22 281.872 156.672C280.646 157.067 279.458 157.568 278.325 158.17C277.465 158.537 276.606 158.903 275.633 158.614C274.685 157.945 274.577 157.017 274.775 155.986C279.908 148.139 292.431 147.405 297.453 154.653C300.799 158.147 303.44 162.001 303.731 167C304.009 169.431 305.26 169.91 307.335 168.747C310.318 166.216 313.883 164.881 317.631 163.928C320.303 163.663 322.697 165.627 325.433 164.866C328.058 164.037 329.381 165.24 329.937 167.646C329.963 168.715 329.647 169.613 328.614 170.142C327.399 170.499 326.257 170.112 325.106 169.813C322.419 169.234 319.868 167.816 316.972 168.547C315.969 168.785 314.989 169.102 314.04 169.496C312.918 170.022 311.91 170.752 311.072 171.647C303.968 179.147 304.961 186.106 314.056 192.44C316.331 193.383 318.614 194.259 321.162 193.628C321.757 193.416 322.354 193.229 322.964 193.044C325.433 192.253 327.621 191.047 329.297 189.051C330.326 187.753 331.067 186.253 332.04 184.913C333.24 182.342 332.795 179.701 332.378 177.061C332.259 176.631 332.182 176.191 332.146 175.748C332.159 174.844 332.236 173.863 333.204 173.524C334.069 173.222 334.491 173.966 334.782 174.665L334.885 176.162C336.802 177.335 335.945 179.459 336.62 181.059C336.213 190.216 330.913 195.385 322.383 197.916L319.525 197.866C317.883 197.092 315.965 198.046 314.357 197.072H313.137L305.929 192.123C302.84 191.125 302.405 188.524 302.035 185.883C301.7 184.066 302.678 182.065 301.229 180.435C298.333 181.401 296.279 183.762 293.422 184.773C291.78 185.344 290.215 186.098 288.4 185.631Z" fill="#F9DA08"/>
<path d="M329.13 167.309C328.575 165.511 326.6 165.536 325.286 164.717C324.71 162.379 322.125 159.582 326.923 158.465C330.511 159.932 333.731 161.832 336.05 164.851C335.994 165.189 335.938 165.526 335.882 165.864C334.477 165.441 333.147 163.419 331.633 165.177C330.3 166.741 331.27 168.318 332.664 169.622C333.576 170.473 334.711 171.196 334.922 172.529C330.593 173.086 329.977 170.096 329.13 167.309Z" fill="#E8B7D6"/>
<path d="M329.206 167.297C330.842 169.331 332.089 171.751 334.878 172.631C334.888 173.235 334.899 173.84 334.909 174.445C332.253 172.865 333.498 175.405 333.023 176.129C329.819 175.045 328.64 172.518 328.066 169.566C329.018 169.084 329.105 168.189 329.206 167.297Z" fill="#D3BA22"/>
<path d="M336.393 180.84L334.909 176.129C337.213 176.999 336.592 179 336.393 180.84Z" fill="#BBA029"/>
<path d="M314.38 196.804C316.115 196.923 317.958 196.233 319.512 197.647C317.692 198.103 315.942 198.074 314.38 196.804Z" fill="#B3A32E"/>
<path d="M303.386 185.999C303.289 188.435 305.136 189.983 306.103 191.931C305.446 193.568 304.791 195.208 304.138 196.85C302.238 201.374 298.763 204.868 296.61 208.663C299.49 205.122 301.556 200.369 305.358 196.943C306.08 196.619 306.748 196.342 307.559 196.858C313.682 200.745 319.813 204.612 325.953 208.457C327.356 209.337 328.637 210.247 327.8 212.212C326.014 213.19 325.874 216.144 323.172 215.983C321.772 216.267 320.621 215.731 319.547 214.909C317.722 214.175 315.676 214.184 313.858 214.935C306.585 216.913 300.87 221.243 295.952 226.768C290.811 222.746 288.808 217.307 288.791 210.973C288.763 202.444 288.74 193.914 288.719 185.384C294.015 184.25 297.743 180.264 302.358 177.896C303.766 180.475 302.123 183.421 303.386 185.999Z" fill="#E7F4FE"/>
<path d="M313.81 214.992C315.705 213.414 317.605 213.438 319.512 214.964L313.81 214.992Z" fill="#E2F1FD"/>
<path d="M305.256 196.838C302.246 201.809 299.24 206.766 294.992 210.87C296.921 205.473 300.423 201.066 304.048 196.738L305.256 196.838Z" fill="#BDC8D0"/>
<path d="M269.785 209.067C266.532 211.432 262.808 209.481 259.378 210.204L225.854 210.184L224.883 210.082C224.845 209.771 224.841 209.458 224.87 209.146C229.666 206.416 234.899 208.294 239.9 207.728C241.783 207.515 243.815 207.776 244.369 205.153C245.018 202.065 243.828 200.333 240.506 200.132C237.183 199.932 233.794 200.132 230.438 200.048C228.535 200.005 226.575 200.163 224.989 198.729C224.97 198.357 224.951 197.984 224.932 197.61H245.896C246.608 197.032 247.455 196.638 248.36 196.461C254.042 195.916 259.736 196.253 265.425 196.246C267.009 196.246 268.603 196.393 269.847 197.59L269.901 199.62C265.044 200.66 260.13 199.739 255.252 200.033C253.833 200.12 252.368 199.972 251.054 200.622C249.311 201.484 249.385 203.144 249.452 204.737C249.532 206.67 250.701 207.527 252.522 207.652C256.318 207.905 260.122 207.677 263.921 207.786C265.937 207.847 268.07 207.527 269.785 209.067Z" fill="#543F96"/>
<path d="M247.878 197.888L245.711 197.916C245.735 184.906 245.746 171.896 245.81 158.886C245.841 157.321 245.5 155.769 244.81 154.343L250.718 155.561C250.887 155.814 251.011 156.091 251.083 156.382C249.611 158.919 249.294 161.656 249.313 164.511C249.366 173.554 249.366 182.598 249.313 191.644C249.297 193.805 249.561 196.062 247.878 197.888Z" fill="#5B45A3"/>
<path d="M212.306 140.985L214.999 139.034L216.298 140.28C216.232 141.487 215.66 142.131 214.352 141.947C213.539 141.902 212.783 141.73 212.306 140.985Z" fill="#519DFD"/>
<path d="M214.587 142.032L216.534 140.259L218.008 140.211L217.164 143.155C216.229 142.977 215.12 143.216 214.587 142.032Z" fill="#B9D7FA"/>
<path d="M272.207 159.348L271.561 159.451C266.15 161.58 261.054 161.472 256.518 157.364C255.74 156.304 255.365 155.261 255.885 153.862C258.027 148.168 260.063 142.434 262.138 136.715C269.943 142.449 277.83 136.145 285.958 136.715C284.897 138.306 282.842 137.053 282.089 138.539C286.155 139.79 290.917 138.106 294.488 141.441L294.455 141.414C295.494 142.139 296.298 142.957 295.647 144.356C293.5 146.044 291.413 144.19 289.447 144.251C291.66 144.918 294.161 145.131 296.384 146.314C299.074 148.141 301.453 150.087 299.268 153.767L297.336 154.643C288.99 149.314 281.86 149.827 275.425 156.219C274.91 157.83 273.874 158.916 272.207 159.348Z" fill="#FBC6E8"/>
<path d="M317.588 157.929C319.241 158.312 321.765 156.797 322.258 159.79C323 164.305 319.675 162.842 317.644 163.175C316.253 161.441 316.434 159.691 317.588 157.929Z" fill="#EEBCD9"/>
<path d="M295.353 144.179L294.422 141.389C296.298 141.442 296.751 142.907 297.147 144.237C297.942 146.914 299.682 148.515 302.405 149.156C300.334 150.022 301.473 152.958 299.299 153.754C299.736 150.561 298.884 148.076 295.454 146.992C294.657 146.088 294.603 145.146 295.353 144.179Z" fill="#BC97B1"/>
<path d="M307.537 168.429C306.51 169.646 305.938 171.318 303.863 172.008C303.326 170.122 303.532 168.416 304.023 166.708L307.537 168.429Z" fill="#E0B78C"/>
<path d="M294.992 141.389C290.862 139.923 286.491 139.186 282.089 139.213C282.015 139.213 281.881 138.988 281.876 138.864C281.901 138.707 281.956 138.555 282.036 138.415C284.721 138.223 287.737 139.442 289.819 136.678C290.15 137.651 290.643 138.423 291.878 138.31C292.582 139.657 294.648 139.696 294.992 141.389Z" fill="#BC97B1"/>
<path d="M256.41 156.968C261.339 158.643 266.33 159.897 271.612 159.069C269.455 163.241 269.479 167.706 269.806 172.209C269.758 180.771 269.71 189.34 269.662 197.916H247.773C247.744 185.289 247.742 172.662 247.662 160.036C247.646 157.736 247.814 155.845 250.87 156.14C252.526 157.641 254.538 156.845 256.41 156.968Z" fill="#6B50C2"/>
<path d="M253.617 141.275C255.242 138.775 253.604 134.183 258.419 133.734C259.832 134.925 260.694 136.168 259.909 138.22C258.048 143.088 256.271 147.997 254.663 152.954C253.999 154.998 253.045 155.95 250.896 155.337C249.214 153.817 250.16 152.242 250.693 150.618C251.706 147.516 252.645 144.39 253.617 141.275Z" fill="#E6F2FC"/>
<path d="M224.967 198.643C230.699 198.623 236.442 198.802 242.167 198.517C246.711 198.29 245.854 201.266 245.903 203.857C245.954 206.554 246.504 209.326 242.052 209.089C236.335 208.784 230.589 209.001 224.851 208.991C224.892 205.542 224.931 202.092 224.967 198.643Z" fill="#6A50C2"/>
<path d="M265.93 215.086C266.685 215.546 267.417 212.006 268.184 215.086C267.821 216.389 268.939 217.972 267.054 219.113C265.157 217.972 266.272 216.396 265.93 215.086Z" fill="#2A3277"/>
<path d="M263.058 214.885C263.19 214.513 263.282 213.842 263.461 213.822C264.312 213.727 264.001 214.476 264.198 214.878C264.13 216.078 264.061 217.278 263.993 218.478L263.325 218.525L263.058 214.885Z" fill="#2E3C86"/>
<path d="M269.785 208.983C263.575 209.018 257.365 209.018 251.157 209.102C249.094 209.13 247.516 208.634 247.9 206.307C248.313 203.795 246.136 199.536 250.043 199.179C256.588 198.577 263.34 197.794 269.901 199.759C269.858 202.834 269.819 205.909 269.785 208.983Z" fill="#6A4FC1"/>
<path d="M329.697 189.825C328.181 191.934 326.216 193.351 323.635 193.794C322.23 192.999 322.084 191.501 321.758 190.149C319.899 182.473 318.474 174.711 317.231 166.909C319.911 166.384 322.407 166.909 324.761 168.266C326.325 168.88 326.529 170.378 326.782 171.736C327.951 177.733 330.232 183.546 329.697 189.825Z" fill="#E1F0FC"/>
<path d="M286.24 154.5C288.137 154.056 289.864 154.616 291.551 155.402C295.949 161.998 296.419 169.543 296.703 177.131C295.519 179.262 293.668 180.409 291.333 180.84C290.175 180.396 289.727 179.36 289.48 178.296C287.914 171.578 286.596 164.806 285.395 158.012C285.178 156.749 285.269 155.501 286.24 154.5Z" fill="#DFEFFC"/>
<path d="M282.317 180.84C273.495 177.87 270.638 170.684 274.32 160.732C275.24 160.035 274.811 158.374 276.29 158.077C276.667 157.224 277.432 157.274 278.186 157.297C278.768 157.579 279.402 157.939 279.561 158.53C281.417 165.454 282.905 172.441 283.016 179.639C283.024 180.115 282.616 180.475 282.317 180.84Z" fill="#1D7FFA"/>
<path d="M285.87 154.479C287.578 163.314 289.288 172.15 291 180.987C289.364 181.892 287.646 182.301 285.791 181.804C284.582 180.921 283.977 179.685 283.755 178.229C282.763 172.019 281.422 165.877 280.29 159.692C280.013 158.299 280.201 156.854 280.824 155.578C282.409 154.789 284.01 154.025 285.87 154.479Z" fill="#1D7FFD"/>
<path d="M314.734 193.205C303.844 188.527 301.99 177.163 310.989 170.241C311.444 170.416 311.85 170.689 312.172 171.037C312.494 171.386 312.724 171.8 312.843 172.247C314.358 178.057 315.293 183.968 316.051 189.902C316.218 191.125 315.876 192.356 314.734 193.205Z" fill="#1E7FF9"/>
<path d="M317.021 167.297C318.793 167.84 318.629 169.495 318.895 170.755C320.496 178.32 321.983 185.904 323.504 193.483L320.296 194.381C318.166 194.441 317.029 193.083 316.657 191.362C315.19 184.567 313.89 177.737 312.694 170.889C312.561 170.123 312.996 169.401 313.434 168.731L317.021 167.297Z" fill="#1E80FC"/>
<path d="M296.756 177.307C295.027 170.044 293.299 162.782 291.57 155.521C299.94 156.906 304.415 170.902 296.756 177.307Z" fill="#217FF5"/>
<path d="M329.866 189.672C327.306 182.809 326.423 175.577 324.645 168.544C326.005 168.2 326.91 169.228 328.048 169.543L333.135 176.099L333.156 176.144C333.895 179.264 334.083 182.385 333.057 185.483C331.981 186.876 331.539 188.696 329.866 189.672Z" fill="#2B81E6"/>
<path d="M281.015 155.521C282.633 164.115 284.25 172.71 285.868 181.306C284.593 181.625 283.454 181.306 282.395 180.557C281.081 172.781 279.768 165.006 278.455 157.232C279.038 156.224 279.976 155.795 281.015 155.521Z" fill="#C1DEFA"/>
<path d="M313.571 168.475C315 175.942 316.429 183.402 317.858 190.855C318.19 192.586 318.523 194.307 320.653 194.796C318.478 195.358 316.593 194.455 314.681 193.729C314.824 185.651 312.641 177.925 310.959 170.122C311.191 169.639 311.559 169.229 312.021 168.937C312.483 168.646 313.02 168.486 313.571 168.475V168.475Z" fill="#C0DDFC"/>
<path d="M332.628 185.551C333.213 182.429 333.253 179.259 332.747 176.129C334.828 179.287 334.95 182.43 332.628 185.551Z" fill="#D3BA22"/>
<path d="M276.744 158.245C276.676 159.514 276.005 160.398 274.616 160.82C274.579 159.39 273.406 159.241 272.182 159.143L275.713 156.109C275.927 156.869 275.714 157.784 276.744 158.245Z" fill="#C6B946"/>
<path d="M303.382 186.139C301.085 183.577 302.007 180.694 302.069 177.896C304.714 180.422 302.896 183.398 303.382 186.139Z" fill="#CAB10B"/>
<path d="M295.459 143.986C295.493 144.887 295.528 145.788 295.562 146.688C292.345 145.458 288.912 145.076 284.727 144.5C288.75 141.785 292.155 144.029 295.459 143.986Z" fill="#D5A8C5"/>
<path d="M295.768 63.6647C294.842 64.6254 281.131 81.01 291.338 97.0869C301.546 113.164 316.768 119.016 324.498 124.607C332.228 130.199 349.245 138.93 347.956 149.438C346.666 159.946 342.054 165.493 341.652 168.475" stroke="#22B573" stroke-width="3" stroke-miterlimit="10"/>
</g>
<defs>
<clipPath id="clip0">
<rect width="360" height="229" fill="white"/>
</clipPath>
</defs>
</svg>
