<svg width="542" height="229" viewBox="0 0 542 229" fill="none" xmlns="http://www.w3.org/2000/svg">
<g clip-path="url(#clip0)">
<path d="M272.058 0H542V229.721H249.478C249.478 229.721 226.962 160.428 293.15 104.896C332.009 72.3055 222.069 42.487 272.058 0Z" fill="#CACAFC"/>
<path d="M470.862 83.6032C513.601 30.6846 542 25.9847 542 25.9847V229.72H247.246C247.246 229.72 218.972 160.729 285.679 111.471C324.824 82.56 440.751 120.886 470.862 83.6032Z" fill="#D2D2FD"/>
<path d="M468.89 55.3589H320.145C318.102 55.3589 316.445 57.0163 316.445 59.0608V133.995C316.445 136.039 318.102 137.697 320.145 137.697H468.89C470.934 137.697 472.59 136.039 472.59 133.995V59.0608C472.59 57.0163 470.934 55.3589 468.89 55.3589Z" fill="white" stroke="#29ABE2" stroke-miterlimit="10"/>
<path d="M316.272 96.0081H472.485" stroke="#B7A6FF" stroke-width="3" stroke-miterlimit="10"/>
<path d="M316.603 110.096H472.816" stroke="#B7A6FF" stroke-width="3" stroke-miterlimit="10"/>
<path d="M316.272 124.064H472.485" stroke="#B7A6FF" stroke-width="3" stroke-miterlimit="10"/>
<path d="M316.603 82.4961H472.816" stroke="#B7A6FF" stroke-width="3" stroke-miterlimit="10"/>
<path d="M316.272 68.8634H472.485" stroke="#B7A6FF" stroke-width="3" stroke-miterlimit="10"/>
<path d="M338.705 55.3928V137.866" stroke="#29ABE2" stroke-width="3" stroke-miterlimit="10"/>
<path d="M361.638 55.3928V137.866" stroke="#29ABE2" stroke-width="3" stroke-miterlimit="10"/>
<path d="M451.712 55.3928V137.866" stroke="#29ABE2" stroke-width="3" stroke-miterlimit="10"/>
<path d="M428.444 55.3928V137.866" stroke="#29ABE2" stroke-width="3" stroke-miterlimit="10"/>
<path d="M407.174 55.3928V137.866" stroke="#29ABE2" stroke-width="3" stroke-miterlimit="10"/>
<path d="M384.907 55.3928V137.866" stroke="#29ABE2" stroke-width="3" stroke-miterlimit="10"/>
<path d="M458.212 126.655C461.182 128.922 463.987 131.398 466.606 134.063" stroke="#F15A24" stroke-width="3" stroke-miterlimit="10"/>
<path d="M467.595 125.668C464.261 128.405 461.127 131.376 458.216 134.56" stroke="#F15A24" stroke-width="3" stroke-miterlimit="10"/>
<path d="M391.407 72.4524C394.376 74.7195 397.181 77.1949 399.8 79.8599" stroke="#F15A24" stroke-width="3" stroke-miterlimit="10"/>
<path d="M400.79 71.4619C397.456 74.1986 394.322 77.1699 391.411 80.3532" stroke="#F15A24" stroke-width="3" stroke-miterlimit="10"/>
<path d="M411.062 116.216L413.689 121.176" stroke="#009245" stroke-width="3" stroke-miterlimit="10"/>
<path d="M413.621 120.758L425.417 114.209" stroke="#009245" stroke-width="3" stroke-miterlimit="10"/>
<path d="M433.329 74.3165L435.956 79.2762" stroke="#009245" stroke-width="3" stroke-miterlimit="10"/>
<path d="M435.892 78.8581L447.684 72.3092" stroke="#009245" stroke-width="3" stroke-miterlimit="10"/>
<path d="M434.353 228.628H377.108C376.731 227.22 377.319 226.486 377.943 225.834C380.341 223.326 383.111 221.225 383.043 217.06C383.013 215.237 384.846 213.727 386.807 212.917C393.812 209.98 400.734 209.629 407.283 213.953C409.624 215.493 410.162 214.909 410.068 212.424C409.918 208.488 411.081 204.666 411.822 200.908C413.188 193.986 411.013 188.043 408.337 182.119C406.918 178.979 406.105 175.717 405.488 172.418C404.257 165.873 410.539 160.744 417.927 162.006C424.326 163.087 425.914 164.849 425.696 171.323C425.587 174.542 424.943 177.755 424.469 180.956C424.153 183.038 423.949 185.064 424.653 187.121C425.662 190.062 427.183 190.886 429.644 188.521C430.103 192.641 430.645 196.765 429.091 200.795C428.549 201.691 427.649 202.275 427.077 203.156C426.396 204.199 426.008 205.961 424.54 205.754C422.719 205.498 422.658 203.521 422.203 202.079C421.522 199.981 421.349 197.744 420.441 195.711C419.794 192.698 418.936 189.749 418.225 186.759C418.424 187.866 418.838 188.913 419.041 190.017C419.436 192.193 420.17 194.283 420.652 196.419C421.085 198.241 420.69 199.288 418.017 198.396C423.814 203.514 424.815 209.799 424.529 216.562C424.853 212.83 424.281 209.004 426.065 205.54C426.795 204.124 427.107 202.116 429.49 202.489C432.422 210.021 435.531 217.504 435.399 225.804C435.38 226.866 435.241 227.894 434.353 228.628Z" fill="#BFBFF4"/>
<path d="M463.335 228.655L443.86 228.625C443.224 227.743 443.665 226.881 443.898 226.015C444.982 223.951 446.495 222.196 447.929 220.366C449.435 218.86 450.187 216.95 450.94 215.026C451.104 214.708 451.316 214.417 451.569 214.164C455.814 209.038 457.132 202.678 458.98 196.543C459.292 195.5 458.419 194.912 457.934 194.182C457.663 192.182 459.439 191.771 460.568 190.924C462.379 189.553 464.456 188.514 465.717 186.51C469.067 183.031 472.91 180.063 476.136 176.455C477.265 175.386 478.394 174.332 479.147 172.949C479.316 172.648 479.523 172.366 479.693 172.091C480.107 171.375 480.171 170.814 479.083 171.21C476.192 172.257 473.324 173.375 470.742 175.088C467.076 176.825 464.212 179.856 460.455 181.453C459.541 181.686 458.626 182.082 457.708 181.453C456.771 179.235 459.304 178.131 459.371 176.233C460.482 173.115 463.214 171.338 465.352 169.078C467.861 166.427 470.454 163.842 473.128 161.324C475.598 158.982 478.454 157.558 481.94 157.701C484.465 157.803 486.855 157.155 489.23 156.421C496.043 154.617 502.825 152.678 509.138 149.492C512.228 147.932 515.337 146.298 518.412 143.997C515.713 143.884 513.395 144.17 511.083 143.843C510.786 143.793 510.502 143.685 510.247 143.524C509.993 143.363 509.773 143.152 509.601 142.905C513.24 141.455 517.03 142.453 520.745 142.223C521.318 142.189 521.875 142.502 521.875 143.044C521.875 144.05 521.073 144.683 520.369 145.206C515.374 148.961 509.853 151.959 503.985 154.105C500.198 155.457 496.321 156.553 492.497 157.788C491.594 158.082 490.141 158.04 490.743 159.671C493.664 167.511 489.641 173.179 484.759 178.466C481.748 181.709 478.447 184.665 476.343 188.634C475.997 189.282 476.057 190.141 475.929 190.894C473.994 191.749 473.012 193.346 472.5 195.311C472.233 195.841 471.882 196.323 471.461 196.739C468.326 202.075 467.483 207.98 467.644 213.975C467.814 219.451 465.672 224.038 463.335 228.655Z" fill="#BFBFF4"/>
<path d="M294.415 229.344L287.663 229.404C287.603 229.408 287.542 229.408 287.482 229.404C278.596 228.346 274.44 222.204 272.084 214.503C269.284 205.351 269.517 195.993 271.207 186.657C271.482 185.151 271.606 183.596 271.915 182.086C271.915 182.055 271.922 182.025 271.937 181.995C272.404 180.24 272.81 178.463 273.533 176.787C274.692 174.004 276.01 171.274 276.604 168.287C276.619 168.214 276.64 168.142 276.668 168.073C278.121 164.604 279.529 161.109 282.175 158.311C284.509 154.048 287.648 151.691 288.604 150.403C289.319 149.145 290.226 148.143 291.762 147.936C292.269 147.907 292.769 148.063 293.169 148.377C293.314 148.504 293.42 148.67 293.474 148.855C293.817 149.985 293.207 150.934 292.639 151.868C287.621 159.972 285.751 169.04 283.929 178.723C283.886 178.944 283.905 179.174 283.983 179.386C284.061 179.598 284.196 179.784 284.372 179.926C284.548 180.067 284.759 180.158 284.983 180.188C285.207 180.218 285.434 180.187 285.642 180.097C288.867 178.677 291.95 179.137 294.976 180.368C297.103 181.234 299.116 182.492 298.126 185.32C298.044 185.549 297.894 185.747 297.697 185.889C295.605 187.395 293.278 187.113 290.922 186.642C290.85 186.628 290.777 186.621 290.704 186.62C289.97 186.595 289.235 186.629 288.506 186.721L288.314 186.763C282.958 188.171 280.963 191.613 281.595 197.119C282.066 201.262 281.328 205.453 282.205 209.592C283.485 215.644 284.463 216.634 290.486 217.463L290.73 217.504C290.925 217.537 291.109 217.615 291.267 217.734C291.425 217.852 291.552 218.007 291.638 218.185C291.724 218.362 291.766 218.558 291.761 218.756C291.755 218.953 291.703 219.146 291.607 219.319C291.514 219.473 291.385 219.602 291.231 219.696C291.035 219.808 290.873 219.972 290.763 220.169C290.652 220.367 290.597 220.59 290.604 220.816C290.61 221.042 290.678 221.263 290.8 221.453C290.922 221.644 291.093 221.798 291.295 221.899C294.716 223.627 298.281 224.019 302.21 222.614C303.396 222.189 304.664 221.68 305.974 221.827C306.146 221.849 306.311 221.906 306.459 221.995C306.608 222.085 306.735 222.204 306.834 222.346C306.934 222.488 307.002 222.65 307.034 222.82C307.067 222.99 307.064 223.165 307.024 223.334C306.403 226.019 303.738 226.301 301.446 227.024L294.788 229.284C294.667 229.323 294.542 229.343 294.415 229.344Z" fill="#FB8001"/>
<path d="M382.611 176.045C381.436 181.694 377.989 186.239 374.895 190.86C373.201 193.391 370.306 194.502 366.919 193.707C363.63 192.879 360.441 191.696 357.408 190.178C353.681 189.802 351.506 186.77 348.593 184.993C348.016 184.494 347.66 183.787 347.603 183.027C347.934 180.662 350.173 179.89 351.491 178.342C353.602 175.864 355.815 173.469 357.66 170.769C358.842 169.199 359.801 167.489 360.821 165.817C361.311 165.018 361.665 163.738 363.121 164.356C364.589 167.609 364.566 171.225 365.605 174.588C367.325 180.154 369.836 180.903 373.728 176.715C378.497 171.586 381.854 165.523 384.643 159.14C385.396 157.46 385.987 155.728 387.221 154.323C388.701 152.791 389.333 150.881 389.675 148.833C389.969 148.03 390.394 147.39 391.373 147.402C393.439 148.396 392.152 149.733 391.749 150.987C388.972 159.452 385.588 167.673 382.611 176.045Z" fill="#FD93BC"/>
<path d="M301.465 226.99C303.129 225.051 306.008 224.674 307.389 222.373C308.609 219.952 310.976 218.694 312.873 216.958C319.027 211.309 325.14 205.66 330.372 199.096C334.418 195.01 337.929 190.484 341.441 185.946C342.382 184.729 342.947 182.763 345.145 183.091C346.3 184.85 345.416 186.367 344.505 187.81C337.071 199.627 330.579 212.107 320.864 222.339C318.896 224.411 317.955 227.307 315.47 228.952C315.038 228.952 314.608 228.975 314.176 228.952C310.058 228.753 305.925 229.374 301.834 228.576L301.465 226.99Z" fill="#373776"/>
<path d="M434.353 228.628C435.301 219.387 431.229 211.215 428.846 202.681C427.969 202.12 428.598 201.073 428.093 200.388C428.997 199.529 429.061 198.565 428.948 197.307C428.688 194.37 428.662 191.391 429.622 188.518C430.043 184.04 430.6 179.585 431.88 175.254C432.14 174.373 432.298 173.337 433.359 173.183C434.707 172.983 435.113 174.181 435.433 175.119C436.247 177.302 436.904 179.541 437.398 181.818C437.797 183.938 438.696 183.984 440.356 183.212C445.855 180.658 450.519 177.103 453.963 172.061C455.814 176.444 454.339 180.406 452.224 184.172C450.504 187.222 448.151 189.922 447.18 193.387C446.429 195.975 445.192 198.397 443.537 200.523C442.317 201.713 442.061 204.613 440.059 204.045C438.143 203.498 439.012 200.911 438.779 199.187C438.177 194.731 438.169 190.178 436.626 185.882C435.478 183.306 435.121 180.444 433.747 177.646C429.558 191.745 432.068 205.167 436.005 218.509C436.638 220.259 436.9 222.122 436.775 223.979C436.649 225.836 436.138 227.646 435.275 229.295L434.353 228.628Z" fill="#BCBDF2"/>
<path d="M482.196 203.423C481.608 205.107 482.354 205.201 483.701 204.73C486.392 203.781 489.05 202.704 491.944 202.47C492.565 202.418 493.25 201.909 493.713 202.568C494.116 203.145 493.898 203.837 493.431 204.361C490.183 208.01 488.538 212.533 486.4 216.819C482.196 225.277 475.191 229.133 465.77 228.61C465.544 225.796 468.781 226.056 469.647 224.196C470.059 223.618 470.52 223.076 471.024 222.577C474.856 219.447 478.929 216.551 481.789 212.409C482.753 211.414 483.694 210.405 484.333 208.982C482.674 209.189 481.458 210.111 480.069 210.571C478.488 211.128 477.235 212.228 475.835 213.09C474.894 213.666 473.813 214.548 473.098 212.774C474.073 209.147 479.241 203.845 482.196 203.423Z" fill="#C3C3EE"/>
<path d="M315.135 228.647C315.386 228.622 315.637 228.592 315.888 228.557C317.789 227.05 320.059 227.352 322.23 227.378C329.735 227.469 337.237 227.431 344.735 227.378C346.793 226.926 347.467 225.254 348.28 223.571C351.547 216.815 351.163 209.595 350.746 202.482C350.486 198.091 350.26 193.651 349.432 189.301C349.737 187.67 348.186 186.217 348.969 184.541L357.426 190.19C356.531 198.55 355.612 206.907 354.754 215.271C354.302 219.677 353.952 224.098 353.557 228.508C352.052 227.533 350.862 228.384 349.695 229.261C338.189 229.766 326.679 229.577 315.169 229.374C314.886 229.218 314.789 229.06 314.879 228.9C314.951 228.73 315.038 228.647 315.135 228.647Z" fill="#6D6EC8"/>
<path d="M457.124 159.513C459.529 151.442 463.354 144.14 468.996 137.855C469.703 137.064 470.407 135.648 471.826 136.416C473.159 137.136 472.541 138.348 472.33 139.527C471.506 144.106 470.825 148.708 469.986 154.033C474.965 151.42 480.807 153.845 485.354 150.083C485.482 150.214 485.573 150.377 485.615 150.556C485.658 150.734 485.65 150.921 485.594 151.096C483.792 153.807 480.946 155.238 478.379 157.046C474.451 160.066 470.72 163.334 467.208 166.83C466.177 167.839 465.059 169.816 463.444 168.69C462.063 167.726 463.621 166.092 463.873 164.755C463.971 164.243 464.095 163.734 464.249 163.248C467.14 155.897 469.38 148.381 470.403 139.606C465.65 144.667 463.305 150.113 460.79 155.449C460.079 156.956 459.74 158.688 458.193 159.686C458.016 159.758 457.823 159.78 457.634 159.75C457.446 159.719 457.269 159.637 457.124 159.513V159.513Z" fill="#BDBDF2"/>
<path d="M482.196 203.423C478.985 206.27 475.526 208.888 473.576 212.883C472.823 214.31 472.929 216.691 470.189 215.839C469.53 213.836 470.422 212.021 470.975 210.191C472.364 205.604 473.207 200.915 474.088 196.215C474.593 193.526 472.643 195.278 471.988 194.765C472.263 192.408 472.775 190.295 475.944 190.913C475.961 192.216 475.978 193.519 475.993 194.822C476.67 196.972 476.463 199.149 476.188 201.326C475.899 203.305 475.317 205.23 474.461 207.038C476.071 204.345 478.524 202.258 481.439 201.1C493.164 191.387 506.842 185.991 521.566 182.899C522.074 182.794 522.548 182.522 523.071 182.432C524.106 182.266 525.461 182.055 525.608 183.415C525.729 184.522 524.43 184.511 523.531 184.643C517.053 185.58 510.843 187.531 504.764 189.862C496.457 193.056 488.553 196.987 482.196 203.423Z" fill="#9E9FDB"/>
<path d="M446.194 193.353C446.488 190.216 448.403 187.704 450.191 185.509C453.492 181.442 453.797 176.847 453.974 172.064L455.566 165.018C455.703 164.899 455.879 164.833 456.061 164.833C456.243 164.833 456.419 164.899 456.556 165.018C457.956 167.338 456.594 169.59 456.375 171.869C456.101 174.765 454.87 177.653 456.375 180.553C456.929 180.824 456.375 182.854 457.918 181.517L460.384 180.764C460.124 183.818 457.29 184.906 455.664 186.936C454.746 187.996 453.767 189.002 452.732 189.949C452.069 190.544 451.407 191.195 450.474 191.248C448.874 191.338 448.885 191.308 448.339 192.133C447.839 192.916 447.259 193.568 446.194 193.353Z" fill="#A4A5E1"/>
<path d="M399.066 135.949C398.998 136.221 397.497 139.873 398.276 137.629C393.044 147.522 390.12 158.341 385.915 168.637C384.895 171.134 384.429 173.887 382.614 176.03C384.237 168.012 388.26 160.816 390.488 153.016C390.978 151.318 392.897 149.736 391.215 147.718C390.217 146.464 390.906 145.225 391.339 144.05C392.603 140.78 394.308 137.699 396.405 134.891C397.572 133.268 399.04 131.502 401.524 132.974C401.607 135.143 400.504 135.015 399.066 135.949Z" fill="#F99EC5"/>
<path d="M470.467 216.035L473.58 212.883C476.271 213.026 477.284 209.731 479.926 209.776C480.283 210.597 479.836 211.188 479.369 211.776C476.121 214.036 473.64 217.18 470.614 219.711C468.648 220.854 467.163 222.671 466.432 224.825C467.84 225.175 469.045 223.473 470.403 224.539C469.745 226.907 466.575 226.422 465.762 228.61C464.961 228.903 464.17 229.849 463.338 228.659C463.31 228.399 463.328 228.136 463.391 227.883C467.249 219.681 465.905 210.529 468.134 202.045C468.736 199.751 468.984 197.149 471.367 195.684C472.522 197.243 471.521 198.659 471.017 200.064C469.481 204.361 468.728 208.812 468.363 213.339C468.228 214.804 468.228 216.34 470.467 216.035Z" fill="#B4B4E5"/>
<path d="M485.41 150.915L485.353 150.083C491.303 146.38 497.252 142.677 503.202 138.973C504.828 137.964 506.51 137.09 509.25 137C506.665 141.026 502.174 141.169 499.536 143.846C498.933 144.697 498.123 145.38 497.183 145.831C495.542 146.539 497.65 146.78 497.33 147.315C493.864 150.222 490.13 152.211 485.41 150.915Z" fill="#898ACD"/>
<path d="M435.279 229.291C434.808 225.698 436.784 222.057 435.068 218.487C435.602 218.148 436.291 218.34 436.34 218.784C436.664 221.741 437.695 218.445 438.252 219.025C439.78 220.464 438.527 222.603 439.558 224.17C439.75 225.823 439.253 227.096 438.211 228.03C440.164 228.369 442.099 225.962 444.609 226.263L443.879 228.625L440.642 230.131H438.339C437.484 229.205 436.291 229.574 435.279 229.291Z" fill="#8586C9"/>
<path d="M481.439 201.1L473.693 208.285L475.199 201.883C476.508 200.896 476.256 198.987 477.513 197.97C478.906 198.942 478.895 201.631 481.439 201.1Z" fill="#BEC1F5"/>
<path d="M497.157 146.965C496.653 146.923 495.99 147.07 495.651 146.803C494.786 146.087 495.727 145.726 496.163 145.507C497.293 144.95 498.079 143.741 499.517 143.843C503.021 145.108 506.153 142.171 509.612 142.943L511.456 143.127C511.411 143.387 511.373 143.764 511.196 143.824C506.62 145.326 502.14 147.27 497.157 146.965Z" fill="#BCBCEE"/>
<path d="M477.528 197.993C477.528 199.744 477.792 201.672 475.214 201.906L476.004 194.833C477.224 195.545 476.271 197.304 477.528 197.993Z" fill="#BFBFF4"/>
<path d="M456.398 165.03H455.57C455.528 163.038 456.413 161.305 457.124 159.524H457.915C459.194 161.844 458.393 163.602 456.398 165.03Z" fill="#BCBDF2"/>
<path d="M428.109 200.392C429.038 200.934 428.861 201.838 428.861 202.685C424.473 207.475 426.227 213.682 425.511 219.846C423.471 217.033 423.355 217.029 423.453 214.231C423.675 207.912 421.766 202.557 416.715 198.539C416.192 198.121 415.548 197.582 415.94 196.968C416.463 196.144 417.265 196.532 417.976 196.968C418.876 197.511 420.291 200.019 420.234 196.437C419.941 195.605 420.332 195.455 421.044 195.628C422.88 198.546 422.828 202.124 424.382 205.419L428.109 200.392Z" fill="#9394D6"/>
<path d="M417.336 222.4C410.441 224.075 403.602 221.375 396.187 222.528C399.522 219.628 406.293 219.609 417.336 222.4Z" fill="#9B9BDB"/>
<path d="M421.044 195.62L420.234 196.43C418.518 193.218 418.499 189.651 418.586 186.062L421.044 195.62Z" fill="#9F9FDD"/>
<path d="M497.157 146.965L511.46 143.131H519.932C511.004 150.787 500.563 154.881 489.317 157.193C485.929 157.807 482.542 158.541 479.056 158.323C477.306 158.217 476.937 157.596 478.243 156.285L485.395 150.908C489.571 150.539 493.602 149.188 497.157 146.965V146.965Z" fill="#4A4BA3"/>
<path d="M444.594 226.263C442.554 227.845 440.59 229.672 437.688 228.32L439.039 223.865C438.391 219.918 441.527 217.188 442.291 213.697C445.208 208.01 449.126 203.032 453.311 198.256C454.538 197.356 455.521 196.159 456.846 195.375C457.214 195.219 457.616 195.165 458.013 195.217C458.238 195.264 458.449 195.36 458.633 195.498C458.817 195.636 458.968 195.813 459.076 196.016C459.184 196.219 459.245 196.444 459.257 196.673C459.268 196.903 459.229 197.132 459.142 197.345C457.335 203.37 456.048 209.588 451.832 214.574C451.74 214.791 451.666 215.015 451.61 215.244C450.338 216.943 449.781 219.048 448.49 220.739L444.594 226.263Z" fill="#494AA2"/>
<path d="M452.378 189.237L460.384 180.786C463.798 178.745 466.741 175.947 470.497 174.456C473.042 173.552 475.327 172.057 477.939 171.277C479.599 170.78 480.494 170.852 479.934 172.908C478.932 174.256 477.645 175.363 476.734 176.787C473.885 180.726 469.922 183.539 466.504 186.902C462.093 190.239 457.979 194.057 452.54 195.771C452.164 195.85 451.787 195.914 451.384 195.955C449.916 196.11 447.967 197.876 447.127 196.279C446.141 194.396 448.426 193.169 449.762 192.054C450.76 191.195 451.821 190.472 452.378 189.237Z" fill="#4A4BA3"/>
<path d="M470.467 216.035C469.741 216.837 469.421 218.528 467.972 217.918C466.899 217.466 467.434 216.035 467.404 215.045C467.197 208.266 469.206 201.962 471.367 195.677L471.995 194.777L474.928 191.451C475.567 200.648 472.229 208.21 470.467 216.035Z" fill="#5859AC"/>
<path d="M478.251 156.285C477.607 158.33 479.083 157.893 480.167 157.931C483.249 158.033 486.208 156.643 489.324 157.178C487.043 158.616 484.469 158.823 481.902 158.741C480.345 158.664 478.792 158.942 477.357 159.552C475.923 160.163 474.646 161.09 473.621 162.266C469.176 167.086 463.689 170.927 460.222 176.663C459.518 177.416 459.383 179.186 457.647 178.131C458.562 173.044 460.764 168.483 463.399 164.103C463.73 163.553 464.268 163.162 465.01 163.444C465.243 165.203 463.926 166.559 463.376 168.969C468.747 164.427 472.744 159.456 478.251 156.285Z" fill="#7B7BC5"/>
<path d="M451.825 214.567C454.678 209.648 456.594 204.346 458.223 198.934C458.6 197.703 459.62 196.114 457.188 195.722C456.782 195.176 457.008 194.72 457.399 194.287L457.892 194.057C459.462 193.959 460.576 194.46 460.124 196.264C458.566 202.582 456.233 208.683 453.176 214.427C452.867 215.033 452.307 214.732 451.825 214.567Z" fill="#A9A9E5"/>
<path d="M452.562 194.897C457.881 193.391 461.728 189.335 466.489 186.887C464.645 190.502 460.467 191.331 457.892 194.042C454.787 196.061 452.054 198.991 447.794 198.207C448.151 195.323 450.993 196.019 452.562 194.897Z" fill="#A9A9E5"/>
<path d="M479.933 172.9C479.531 170.49 478.052 171.91 477.001 172.147C474.743 172.644 472.989 174.591 470.494 174.46C473.682 171.88 477.479 170.765 481.567 169.466C481.823 171.349 481.164 172.256 479.933 172.9Z" fill="#7071BD"/>
<path d="M457.877 178.305L460.218 176.67C460.508 178.79 457.742 179.457 457.919 181.521C457.264 182.632 456.484 183.615 455.152 184.157C454.806 182.681 456.718 182.025 456.308 180.636C455.995 179.306 456.797 178.711 457.877 178.305Z" fill="#BCBDF2"/>
<path d="M448.482 220.731C448.987 218.596 449.747 216.589 451.603 215.237C451.196 217.429 450.406 219.402 448.482 220.731Z" fill="#797AC4"/>
<path d="M476.734 176.772C476.994 174.814 478.349 173.759 479.933 172.893C479.557 174.738 478.255 175.868 476.734 176.772Z" fill="#7071BD"/>
<path d="M294.712 146.117L296.015 145.289C301.051 142.762 305.763 139.817 309.715 135.701C314.311 130.918 319.554 127.099 326.25 125.781C328.132 125.299 329.976 124.32 331.964 125.36C333.018 126.373 332.208 127.179 331.655 127.996C331.279 128.583 330.379 129.227 331.851 129.566C335.464 130.402 333.94 131.803 332.254 133.219C331.861 133.542 331.446 133.836 331.011 134.1C328 135.588 324.989 137.113 322.434 139.373C318.15 143.85 316.129 149.559 314.153 155.189C309.813 167.519 306.403 180.105 304.604 193.089C303.994 197.492 305.086 199.036 309.806 200.004C315.372 200.271 320.235 198.249 324.861 195.398C326.367 194.475 327.782 192.762 329.735 194.151C331.689 195.541 331.994 197.541 330.914 199.71C323.928 208.146 316.344 215.956 307.401 222.354C305.022 222.9 302.583 223.277 300.272 224.026C294.682 225.842 290.764 222.701 286.202 219.933C288.404 218.366 290.79 220.057 292.379 218.396C299.869 212.503 297.328 204.368 297.121 196.799C297.016 192.961 295.823 189.086 297.848 185.396C296.835 180.553 289.503 178.293 284.994 181.46C284.177 182.033 283.462 182.748 281.983 183.991C283.933 172.577 285.638 162.058 290.986 152.538C291.739 151.205 293.064 150.166 293.15 148.479C292.635 147.017 294.152 146.87 294.712 146.117Z" fill="#FCA118"/>
<path d="M297.833 185.415C297.498 193.568 299.12 201.649 298.665 209.818C298.405 214.45 296.719 216.924 292.36 218.419C283.669 218.355 280.97 215.636 280.605 206.398C280.481 203.261 280.579 200.12 280.579 196.983C280.579 188.698 280.579 188.698 288.483 185.467C288.882 186.409 288.257 187.215 288.137 188.103C287.979 189.267 288.22 190.284 289.601 190.288C290.982 190.291 291.231 189.275 291.069 188.107C290.949 187.234 290.316 186.428 290.719 185.471C293.105 186.657 295.465 185.697 297.833 185.415Z" fill="#E7740C"/>
<path d="M418.078 176.452C418.229 176.631 418.356 176.83 418.454 177.043C418.533 177.198 418.551 177.376 418.504 177.544C418.456 177.711 418.347 177.853 418.198 177.943C418.07 178.03 417.92 178.076 417.765 178.076C417.611 178.076 417.46 178.03 417.333 177.943C417.183 177.854 417.073 177.711 417.026 177.544C416.978 177.377 416.996 177.197 417.077 177.043C417.175 176.829 417.302 176.629 417.453 176.448L418.078 176.452Z" fill="#964D0C"/>
<path d="M413.712 174.151C413.713 173.307 414.01 172.49 414.551 171.842Z" fill="#FB8001"/>
<path d="M294.712 146.117L293.147 148.497L291.434 148.448L293.214 146.283L294.712 146.117Z" fill="#FA9B2E"/>
<path d="M323.672 138.36C326.149 136.032 329.088 134.503 332.257 133.366C336.74 131.78 340.685 132.613 344.076 135.968C344.452 139.184 342.57 139.775 339.996 139.357C337.963 139.03 336.055 138.058 333.161 138.054C336.45 141.945 339.714 145.161 342.695 148.599C348.239 154.982 353.109 161.919 358.849 168.133C359.602 168.965 360.475 169.918 359.602 171.213C356.926 175.83 352.974 179.318 349.289 183.023C347.994 184.021 347.99 185.445 348.028 186.883C348.197 189.44 347.437 191.73 346.214 193.956C340.816 203.747 335.317 213.474 327.598 221.71C326.909 222.464 325.889 223.262 326.401 224.38C326.913 225.499 328.211 225.167 329.201 225.183C333.36 225.247 337.527 225.066 341.682 225.273C343.959 225.386 346.485 225.461 347.031 228.557H317.209C318.625 223.409 322.919 220.298 326.047 216.423C333.661 206.986 339.164 196.219 345.788 186.164C346.41 185.222 346.236 184.164 346.251 183.132C345.679 182.598 345.179 182.003 344.599 181.468C341.061 178.267 340.041 178.421 337.237 182.176C334.124 186.348 331.215 190.789 326.085 192.867C323.864 193.974 321.741 195.255 319.31 195.921C315.022 197.1 312.636 195.688 312.328 191.248C311.801 183.532 312.151 175.868 314.285 168.336C315.414 164.446 316.543 160.567 317.827 156.73C318.673 154.191 318.387 151.563 318.545 148.968C319.294 145.043 321.062 141.384 323.672 138.36Z" fill="#4849A1"/>
<path d="M401.411 133.588C399.236 132.522 397.922 134.029 397.068 135.471C394.757 139.369 392.065 143.12 391.211 147.729C390.583 148.072 390.458 148.659 390.432 149.303C389.638 151.13 388.813 152.945 388.072 154.794C384.869 160.684 382.321 166.924 378.467 172.467C377.018 174.616 375.359 176.615 373.513 178.433C369.817 181.976 367.363 181.611 365.383 176.798C363.79 172.832 362.951 168.603 362.91 164.329L363.385 164.047C363.512 164.044 363.64 164.063 363.761 164.103C369.493 167.338 369.445 167.301 373.611 161.844C379.095 154.689 383.457 146.81 388.128 139.132C388.475 138.514 388.81 137.893 389.13 137.249C390.161 135.426 390.948 133.483 392.141 131.728C393.078 130.44 393.646 128.941 394.504 127.585C394.82 127.128 395.185 126.708 395.592 126.331C399.966 121.812 403.323 116.303 408.585 112.597C409.406 112.021 415.1 104.813 416.32 105.291C418.672 106.861 412.326 112.962 412.157 113.99C411.909 115.497 412.534 116.465 413.712 117.244C415.304 118.283 415.827 119.782 415.469 121.624C415.236 122.434 414.814 123.07 413.964 123.3L411.705 124.942C411.329 126.678 409.737 127.179 408.506 128.048C408.144 128.178 407.813 128.383 407.535 128.649C407.256 128.915 407.037 129.236 406.891 129.592C405.841 132.048 404.419 133.916 401.411 133.588Z" fill="#FCB2CF"/>
<path d="M358.251 171.213C355.77 166.461 351.615 163.026 348.434 158.812C343.353 152.086 337.926 145.632 331.873 139.727C331.192 139.064 329.815 138.409 330.545 137.252C331.143 136.3 332.453 136.733 333.443 136.974C334.967 137.281 336.462 137.714 337.914 138.269C340.09 139.203 341.678 138.875 342.668 136.631C343.797 135.927 344.704 136.559 345.454 137.264C348.374 140.013 351.536 142.577 353.154 146.426C353.467 147.044 353.753 147.68 354.077 148.309C354.581 149.409 355.582 150.049 356.452 150.791C357.871 152.617 358.334 154.933 359.549 156.861C360.303 158.651 361.393 160.28 362.76 161.659C363.23 162.465 363.821 163.267 362.959 164.179L362.925 164.341C361.021 166.393 360.55 169.421 358.251 171.213Z" fill="#6C6DC8"/>
<path d="M345.732 186.16C346.108 184.846 344.712 182.293 347.956 183.038L348.95 184.545C349.458 185.885 350.832 186.91 350.426 188.585C347.93 189.58 346.891 187.753 345.732 186.16Z" fill="#443BDA"/>
<path d="M324.94 191.719C329.385 189.162 332.092 184.959 335.156 181.057C336.202 179.721 336.891 176.915 338.919 177.834C341.151 178.851 344.339 179.611 344.471 183.132C339.687 188.57 335.991 194.927 330.454 199.729C330.364 198.825 330.428 197.868 330.15 197.021C329.397 194.686 328.595 193.44 325.84 195.616C321.119 199.388 315.203 201.339 309.166 201.115C309.083 199.232 310.766 199.541 311.778 199.104C313.031 198.565 314.394 198.271 315.455 197.337C318.448 195.176 322.012 193.986 324.94 191.719Z" fill="#F87F02"/>
<path d="M438.245 219.112L437.115 220.92C436.152 220.347 436.306 218.837 435.083 218.483C429.411 202.094 429.11 185.776 433.826 174.761C435.813 178.192 436.107 181.999 437.477 185.418C438.708 193.078 440.307 200.708 439.178 208.545C439.159 208.684 438.896 209.189 439.389 209.076C441.105 208.699 441.448 208.76 441.226 209.998C440.65 213.151 440.661 216.54 438.245 219.112Z" fill="#4C4DA4"/>
<path d="M438.245 219.112L440.691 208.341L437.955 211.452C439.92 202.037 438.019 193.752 437.462 185.422C439.761 191.214 439.566 197.383 440.036 203.6C441.745 202.606 441.474 200.384 443.093 199.597C444.342 201.103 442.976 202.911 443.668 204.493C443.548 209.388 440.894 213.584 439.972 218.193C441.101 216.792 439.784 213.674 443.119 213.73L439.043 223.88C436.156 222.72 439.374 220.551 438.245 219.112Z" fill="#A2A3E0"/>
<path d="M443.01 204.267C441.18 202.678 443.642 201.164 443.096 199.593C444.439 197.68 445.485 195.575 446.198 193.349C447.421 190.713 450.172 190.382 452.382 189.237C452.066 192.442 448.561 193.308 447.319 196.211C449.254 196.038 450.707 194.411 452.566 194.897L447.632 197.94C445.791 199.831 444.715 202.282 443.01 204.267Z" fill="#4C4DA4"/>
<path d="M470.369 218.954C472.974 216.099 475.503 213.154 478.97 211.26C479.324 211.094 479.666 210.883 480.009 210.714C481.104 210.123 482.339 208.646 483.434 209.727C484.699 210.978 482.478 211.795 482.282 212.985C479.501 217.293 475.661 220.468 471.367 223.153C469.745 223.529 468.153 226.12 466.764 224.399C465.845 223.27 468.115 221.695 469.18 220.468C469.643 220.019 470.043 219.51 470.369 218.954V218.954Z" fill="#5051A7"/>
<path d="M470.369 218.954C470.655 221.552 467.701 222.155 467.012 224.456L471.367 223.153L470.403 224.535L464.889 226.855C465.631 223.085 467.031 220.392 470.369 218.954Z" fill="#5859AC"/>
<path d="M482.282 212.985L483.234 210.017L478.97 211.26L479.922 209.776L486.016 207.14C485.06 209.901 484.221 211.757 482.282 212.985Z" fill="#6061B1"/>
<path d="M345.732 186.16C347.422 186.729 348.547 188.382 350.426 188.586C351.555 198.531 353.188 208.485 351.148 218.476C350.58 221.251 349.266 223.872 348.265 226.553C347.829 227.728 347.136 228.617 345.702 228.572C344.001 226.723 341.938 226.109 339.401 226.199C334.971 226.361 330.53 226.271 326.092 226.226C325.117 226.226 323.834 226.685 323.284 225.473C322.735 224.26 323.581 223.168 324.297 222.298C326.581 219.511 328.941 216.788 331.203 213.987C336.729 207.148 340.368 199.277 344.863 191.877C345.95 190.073 345.657 188.1 345.732 186.16Z" fill="#4849A1"/>
<path d="M457.877 178.305L456.308 180.647L454.618 181.735C454.188 176.022 455.95 170.592 456.394 165.026C457.042 163.226 457.862 161.475 457.9 159.513C461.306 151.853 464.298 143.944 471.352 137.042C470.832 147.017 468.506 155.37 464.991 163.456C461.396 167.813 460.527 173.488 457.877 178.305Z" fill="#4A4BA3"/>
<path d="M373.144 110.842C372.275 111.418 372.392 112.326 372.369 113.184C371.846 117.011 368.684 118.027 365.82 119.368C363.776 119.997 361.589 119.391 359.557 120.121C355.499 121.296 354.016 124.369 353.591 128.222C353.483 128.794 353.183 129.312 352.74 129.69C349.293 129.555 346.323 128.184 343.602 126.169C339.54 121.255 339.224 118.445 342.337 114.322C344.185 111.874 346.5 110.522 349.752 111.004C352.763 111.448 355.424 110.733 357.106 107.893C357.483 106.764 357.935 105.615 357.14 104.455C356.109 102.892 355.194 101.198 356.764 99.5782C358.333 97.9589 360.468 97.7706 362.41 98.825C363.949 99.6573 365.368 100.282 367.066 99.4841C370.028 100.301 371.428 97.1869 373.897 96.7538C374.112 97.7894 373.547 99.0133 374.71 99.8117C378.045 101.947 378.342 102.659 376.253 105.502C375.023 107.193 374.748 109.4 373.144 110.842Z" fill="#FBB1CF"/>
<path d="M369.185 94.3323C370.645 93.6055 372.049 92.6113 373.826 93.2778C373.856 94.4352 373.886 95.5939 373.916 96.7538C372.06 98.2601 371.176 101.721 367.657 99.8456C367.111 99.5255 366.674 99.7929 366.256 100.113C365.47 100.719 364.664 101.118 363.885 100.154C363.181 99.2882 363.607 98.4334 364.04 97.6162C365.127 95.5411 367.517 95.5035 369.185 94.3323Z" fill="#3B3A7A"/>
<path d="M316.05 128.293L318.99 127.288C321.342 126.911 323.574 125.405 326.088 126.535C318.722 128.583 313.355 133.494 307.958 138.604C304.66 141.726 300.757 144.419 296.019 145.274C301.058 141.489 306.373 138.024 310.419 133.068C310.901 132.477 311.36 131.863 311.827 131.257C311.92 130.837 312.151 130.46 312.483 130.187C312.815 129.914 313.23 129.76 313.66 129.751C314.138 129.687 314.597 129.525 315.008 129.274C315.42 129.023 315.775 128.689 316.05 128.293V128.293Z" fill="#F89321"/>
<path d="M333.142 103.747C331.042 102.715 332.276 101.77 333.217 100.817C335.852 98.535 339.348 98.5915 342.446 97.586C343.511 97.2395 344.704 97.3337 345.732 96.7386C349.835 95.5712 349.65 91.9974 350.177 88.8302C349.914 86.8607 350.715 85.3656 352.236 84.1944C353.117 83.7274 354.05 82.737 355.033 83.5429C356.015 84.3488 355.288 85.4936 354.878 86.3975C353.474 89.5081 353.354 92.9803 351.995 96.2528C354.107 97.1717 356.591 94.6674 358.446 96.9608C357.317 99.2882 354.897 99.179 352.94 99.8568C350.904 100.561 348.739 100.885 346.692 101.593C342.205 102.493 337.944 104.82 333.142 103.747Z" fill="#F98F19"/>
<path d="M443.01 204.267C443.744 201.567 444.177 198.648 447.632 197.94C451.569 197.993 454.226 194.645 457.918 194.054L457.207 195.726V195.696C455.766 196.309 454.851 197.488 453.981 198.708C450.078 203.506 446.322 208.409 443.123 213.715C440.608 214.702 441.527 218.012 439.295 219.323C439.739 214.054 442.204 209.362 443.01 204.267Z" fill="#B9B9F0"/>
<path d="M453.978 198.712C454.286 196.886 455.257 195.767 457.203 195.699C456.413 197.002 455.461 198.14 453.978 198.712Z" fill="#A9A9E5"/>
<path d="M352.631 147.051C349.861 143.048 347.317 138.826 342.661 136.631C339.273 133.705 335.107 133.479 330.925 133.37L333.454 130.975C332.077 129.769 330.104 131.159 328.791 129.788L332.287 125.849L332.664 125.386C337.293 124.124 340.666 126.926 344.279 128.967C345.479 129.954 346.478 131.164 347.219 132.53C349.853 136.36 352.375 140.235 354.073 144.581C354.176 144.962 354.212 145.358 354.178 145.752C353.96 146.547 353.783 147.394 352.631 147.051Z" fill="#F8B96F"/>
<path d="M316.633 197.853C314.928 200.313 311.688 199.458 309.61 201.118C304.544 200.245 302.76 198.038 303.415 193.587C305.421 179.924 308.989 166.649 313.577 153.668C315.195 148.991 317.356 144.52 320.017 140.348C320.589 139.459 321.252 138.661 322.347 138.382C320.841 141.726 318.862 144.897 318.263 148.61C313.991 162.962 309.181 177.167 306.648 191.99C305.752 197.232 306.377 197.955 311.71 197.684C313.344 197.578 315.038 196.69 316.633 197.853Z" fill="#F1880F"/>
<path d="M326.088 126.535L318.99 127.288C322.343 125.096 326.299 125.484 329.984 124.712L330.865 124.806C331.723 124.531 332.457 124.463 332.37 125.729L332.272 125.849C330.157 125.495 328.17 126.44 326.088 126.535Z" fill="#F8B96F"/>
<path d="M317.078 197.853C314.172 198.607 311.266 199.251 308.217 198.953C306.222 198.757 304.83 197.966 305.27 195.771C308.5 179.69 311.669 163.587 318.704 148.588C319.633 156.707 315.395 163.719 313.81 171.296C312.399 177.988 312.237 184.714 312.501 191.47C312.647 195.18 314.349 196.166 317.973 194.908C320.646 193.982 323.243 192.792 325.847 191.719C323.6 194.747 319.87 195.632 317.078 197.853Z" fill="#383776"/>
<path d="M329.495 171.402C331.538 172.652 333.571 173.914 335.626 175.145C336.571 175.714 336.876 176.463 336.236 177.386C335.596 178.308 334.956 177.676 334.282 177.288C332.024 175.985 330.326 174.166 328.791 172.174L329.495 171.402Z" fill="#3734D6"/>
<path d="M354.389 143.21C354.856 145.775 356.041 148.189 355.955 150.866C354.423 150.836 353.696 149.996 353.557 148.527C353.38 147.477 354.491 146.43 353.557 145.379C353.542 145.128 353.524 144.877 353.504 144.626C353.319 144.386 353.214 144.094 353.202 143.791C353.191 143.488 353.274 143.189 353.44 142.935C353.513 142.866 353.602 142.818 353.699 142.794C353.796 142.771 353.898 142.773 353.993 142.8C354.089 142.828 354.176 142.881 354.246 142.953C354.315 143.024 354.364 143.113 354.389 143.21Z" fill="#CBA390"/>
<path d="M353.565 145.364C354.634 146.415 354.675 147.466 353.565 148.512L352.639 147.036C353.331 146.709 353.535 146.091 353.565 145.364Z" fill="#E5AF7C"/>
<path d="M337.865 114.687L340.241 111.648C341.942 108.884 343.508 105.999 346.613 104.493C348.073 106.033 346.903 109.302 350.049 109.731C353.211 110.77 355.368 107.792 358.236 107.679C357.216 111.697 353.557 112.574 350.685 112.085C346.756 111.388 344.599 112.691 342.552 115.542C340.128 118.931 341.234 121.827 343.462 124.682C343.7 124.987 343.918 125.307 344.144 125.619C344.038 125.766 343.904 125.89 343.748 125.982C343.593 126.074 343.42 126.132 343.24 126.154C340.286 125.269 338.822 122.626 336.774 120.671C336.273 119.978 335.645 119.342 335.551 118.434L336.115 117.12C335.935 115.745 336.699 115.071 337.865 114.687Z" fill="#F698BF"/>
<path d="M358.239 107.682C355.782 109.885 353.237 111.847 349.605 110.819C346.368 108.891 346.73 105.547 346.647 102.565C346.598 100.772 348.284 100.128 350.034 100.271C352.292 102.489 356.203 101.657 358.078 104.602C359.685 105.551 358.175 106.658 358.239 107.682Z" fill="#3B3A7A"/>
<path d="M343.316 125.781L344.144 125.627C346.522 127.841 350.166 127.442 352.533 129.672L352.706 129.706C354.114 131.927 354.893 134.225 353.527 136.763C353.565 138.943 354.758 140.969 354.385 143.206L353.55 143.037C351.98 141.907 351.566 140.088 350.889 138.427C351.227 133.697 348.352 131.046 344.727 128.873C343.861 128.425 343.165 127.823 342.943 126.817C342.927 126.436 343.061 126.065 343.316 125.781Z" fill="#8480CA"/>
<path d="M358.085 104.602C356.181 103.905 354.502 102.606 352.232 102.96C350.621 103.212 350.324 101.988 350.482 100.644C353.32 99.3485 356.365 98.6254 359.237 97.4391C360.517 97.119 362.052 97.6726 363.027 96.3094C363.598 95.6449 364.263 95.0665 364.999 94.5921C365.628 94.2607 366.249 93.8163 366.99 94.3172H369.185C368.669 95.9026 367.081 96.0683 365.914 96.7952C364.871 97.4429 363.836 98.5049 364.318 99.5744C365.071 101.254 365.895 99.0735 366.765 99.2618C367.091 99.3993 367.391 99.5916 367.653 99.8305C366.08 101.021 364.661 102.154 362.73 100.105C361.224 98.52 359.192 98.599 357.502 99.951C355.368 101.68 357.434 103.103 358.085 104.602Z" fill="#3B3A7A"/>
<path d="M366.979 94.3248L365.173 95.2776C362.865 95.7107 361.074 98.6029 358.281 96.7199L349.289 98.0267C353.309 93.8051 351.717 88.1525 355.134 84.1945C353.858 83.6296 353.418 84.9477 352.563 84.8648C352.85 83.3848 353.964 82.5752 355.07 81.7655C356.772 78.7528 358.665 78.7528 361.634 80.4964C363.742 81.7354 366.652 81.5847 369 82.8237C373.656 85.2753 376.807 90.6756 373.159 94.3549C372.079 95.4546 369.238 94.3549 366.979 94.3248Z" fill="#FCA119"/>
<path d="M343.229 126.576L344.923 128.139C345.487 128.474 346.003 128.96 345.627 129.608C345.25 130.255 344.592 130.131 344.008 129.758C340.342 127.815 336.857 125.394 332.381 125.732L330.876 124.81L335.558 118.442C336.352 118.754 337.086 119.127 337.147 120.129C338.652 122.769 341.035 124.584 343.229 126.576Z" fill="#5350A2"/>
<path d="M346.364 104.73C346.364 103.442 346.364 102.154 346.364 100.866C350.128 98.9268 354.607 98.9832 358.277 96.7237L365.176 95.2776L363.787 96.7388C362.944 98.441 361.085 97.4468 359.888 98.2112C356.595 98.4071 353.918 100.994 350.478 100.644C347.347 101.303 346.251 103.856 347.667 107.562C348.111 108.726 348.946 109.739 349.601 110.819C346.12 110.07 346.767 107.118 346.364 104.73Z" fill="#6B5878"/>
<path d="M344.019 129.754C345.228 129.724 345.495 129.163 344.934 128.135C350.038 130.376 352.277 133.874 351.468 138.348C349.63 136.655 347.989 134.761 346.575 132.699L344.019 129.754Z" fill="#605CA9"/>
<path d="M346.56 132.718C348.781 134.081 349.993 136.322 351.453 138.367L353.55 143.056C353.537 143.58 353.524 144.105 353.512 144.63L346.56 132.718Z" fill="#E5AF7C"/>
<path d="M343.229 126.576C340.391 125.194 338.031 123.356 337.139 120.133L343.316 125.781L343.229 126.576Z" fill="#605CA9"/>
<path d="M359.888 98.2112L363.787 96.7388C363.238 99.2205 361.284 97.9815 359.888 98.2112Z" fill="#4F4EA4"/>
<path d="M476.034 44.3851H525.164C525.164 44.3851 527.08 45.0253 526.44 41.8318C525.8 38.6383 520.696 38.0018 518.159 38.6383C515.623 39.2747 516.244 38.6383 516.244 38.6383C516.244 38.6383 519.435 34.8083 516.244 32.8915C513.052 30.9746 511.776 31.6148 509.845 32.8915C509.845 32.8915 510.485 16.9316 496.446 22.0381C482.406 27.1447 484.962 34.8046 485.598 36.7252C486.234 38.6458 480.494 29.0653 474.751 34.8083C469.007 40.5514 476.034 44.3851 476.034 44.3851Z" fill="white"/>
<path d="M449.452 32.4991L424.076 40.194L431.766 65.5844L457.143 57.8896L449.452 32.4991Z" fill="#4849A2"/>
<path d="M447.392 25.6886L422.015 33.3834L424.077 40.1914L449.454 32.4966L447.392 25.6886Z" fill="#F7F7FB"/>
<path d="M428.106 37.0279C428.904 36.786 429.355 35.9429 429.113 35.1447C428.871 34.3465 428.028 33.8956 427.231 34.1374C426.433 34.3793 425.982 35.2225 426.224 36.0207C426.466 36.8188 427.308 37.2698 428.106 37.0279Z" fill="#4849A2"/>
<path d="M436.298 34.5469C437.095 34.305 437.546 33.4619 437.304 32.6637C437.063 31.8655 436.22 31.4146 435.422 31.6565C434.624 31.8984 434.174 32.7415 434.415 33.5397C434.657 34.3379 435.5 34.7888 436.298 34.5469Z" fill="#4849A2"/>
<path d="M444.525 32.0483C445.322 31.8064 445.773 30.9632 445.531 30.1651C445.29 29.3669 444.447 28.9159 443.649 29.1578C442.851 29.3997 442.401 30.2429 442.642 31.041C442.884 31.8392 443.727 32.2902 444.525 32.0483Z" fill="#4849A2"/>
<path d="M446.5 36.0053L429.398 41.1913L429.787 42.4779L446.89 37.292L446.5 36.0053Z" fill="#F8F7FF"/>
<path d="M438.429 54.7067C437.255 55.0615 436.201 54.8969 435.268 54.2131C434.337 53.5282 433.631 52.3878 433.149 50.7918C432.672 49.1981 432.632 47.8631 433.031 46.787C433.433 45.7099 434.219 44.9944 435.39 44.6406C436.56 44.2867 437.612 44.4486 438.543 45.1261C439.474 45.8004 440.179 46.9324 440.659 48.5221C441.142 50.1212 441.185 51.4636 440.79 52.5493C440.394 53.635 439.607 54.3541 438.429 54.7067ZM437.979 53.217C438.588 53.0329 438.978 52.5878 439.149 51.8816C439.323 51.1714 439.233 50.2308 438.879 49.06C438.525 47.8997 438.08 47.0734 437.544 46.5811C437.01 46.0847 436.44 45.9281 435.834 46.1112C435.231 46.2934 434.843 46.7396 434.669 47.4499C434.498 48.156 434.587 49.0902 434.934 50.2524C435.284 51.4242 435.728 52.2578 436.266 52.7533C436.802 53.2456 437.373 53.4001 437.979 53.217ZM443.804 52.8795L445.472 43.4215L445.452 43.3549L440.64 44.8091L440.195 43.3336L446.834 41.3271L447.289 42.8358L445.636 52.3257L443.804 52.8795Z" fill="white"/>
</g>
<defs>
<clipPath id="clip0">
<rect width="542" height="228.967" fill="white"/>
</clipPath>
</defs>
</svg>
