<svg id="Layer_1" data-name="Layer 1" xmlns="http://www.w3.org/2000/svg" viewBox="0 0 800 600"><defs><style>.cls-1,.cls-11,.cls-15,.cls-23,.cls-25,.cls-27,.cls-4,.cls-6,.cls-7,.cls-8,.cls-9{fill:none;}.cls-1,.cls-11,.cls-17,.cls-23,.cls-8,.cls-9{stroke:blue;}.cls-1,.cls-11,.cls-17,.cls-21,.cls-23,.cls-25,.cls-27,.cls-4,.cls-6,.cls-7,.cls-8,.cls-9{stroke-miterlimit:10;}.cls-1,.cls-17,.cls-25,.cls-4,.cls-7,.cls-8,.cls-9{stroke-width:2px;}.cls-2{fill:blue;}.cls-3{fill:#51c5ed;}.cls-4{stroke:#29abe2;}.cls-5{fill:#0e25fb;}.cls-6,.cls-7{stroke:#fff;}.cls-6{stroke-width:3px;}.cls-8{stroke-dasharray:12.79 12.79;}.cls-9{stroke-dasharray:11.15 11.15;}.cls-10{fill:#fc766a;}.cls-12,.cls-17{fill:#fff;}.cls-13{fill:#1027fb;}.cls-14{fill:#fc7e74;}.cls-16{fill:#1200ff;}.cls-18{fill:#fd9eaf;}.cls-19{fill:#ff0;}.cls-20,.cls-21{fill:#1027fa;}.cls-21{stroke:#ff0;}.cls-21,.cls-23{stroke-width:4px;}.cls-22{fill:#fed4ae;}.cls-24{fill:#fd9fb0;}.cls-25,.cls-27{stroke:#ff7bac;}.cls-26{fill:#fcee21;}.cls-28{fill:#fcef71;}</style></defs><title>CUSTOMER</title><rect class="cls-1" x="66.06" y="226.39" width="157.88" height="157.05"/><rect class="cls-2" x="126.72" y="463.21" width="98.05" height="9.97"/><path class="cls-3" d="M201.5,537.17H125.89c-5.48,0-8.31-5.32-8.31-10.8H135V479.83a10,10,0,0,1,10-10h70.63c-4.15,2.49-4.15,4.49-4.15,10v46.53C211.47,531.85,207.32,537.17,201.5,537.17Z"/><line class="cls-1" x1="117.58" y1="525.53" x2="211.47" y2="525.53"/><line class="cls-4" x1="144.17" y1="469.03" x2="215.63" y2="469.03"/><rect class="cls-1" x="111.76" y="454.07" width="132.12" height="26.59"/><polygon class="cls-5" points="247.21 361.83 90.99 361.83 90.99 204.78 185.44 203.95 247.21 245.5 247.21 361.83"/><path class="cls-6" d="M107.65,227.22s-5.08,5.08,0,7.62,7.62,4.23,4.23,9.31"/><path class="cls-6" d="M144.59,220.25s-6.18-3.66-7.38,1.89-2.21,8.43-8,6.41"/><path class="cls-6" d="M119.71,211.65s-3.9-6-7.45-1.6-5.74,6.56-10,2.18"/><path class="cls-6" d="M137.11,246s-6.18-3.66-7.38,1.89-2.21,8.43-8,6.41"/><path class="cls-6" d="M127.14,296.69s-6.18-3.66-7.38,1.89-2.21,8.43-8,6.41"/><path class="cls-6" d="M103.44,266s-3.92,6,1.57,7.46,8.33,2.57,6.07,8.24"/><path class="cls-6" d="M226.85,259.3s-6.18-3.66-7.38,1.89-2.21,8.43-8,6.41"/><path class="cls-6" d="M172.23,213.12s-.38,7.17,5.1,5.66,8.49-2,9.38,4.09"/><path class="cls-6" d="M226.25,283.75s-.38,7.17,5.1,5.66,8.49-2,9.38,4.09"/><path class="cls-6" d="M198.82,296.22s-.38,7.17,5.1,5.66,8.49-2,9.38,4.09"/><path class="cls-6" d="M169.16,237.53s-7.11-1-6.11,4.55,1.16,8.64-4.94,9"/><path class="cls-6" d="M209,230s-7.11-1-6.11,4.55,1.16,8.64-4.94,9"/><path class="cls-6" d="M150,293.7s-5.08,5.08,0,7.62,7.62,4.23,4.23,9.31"/><path class="cls-6" d="M172.84,273.43s-6.18-3.66-7.38,1.89-2.21,8.43-8,6.41"/><path class="cls-6" d="M240.2,315.52s-3.9-6-7.45-1.6-5.74,6.56-10,2.18"/><path class="cls-6" d="M190.51,264.64s-.38,7.17,5.1,5.66,8.49-2,9.38,4.09"/><path class="cls-6" d="M187.44,289s-7.11-1-6.11,4.55,1.16,8.64-4.94,9"/><path class="cls-6" d="M240.62,339.74s-7.11-1-6.11,4.55,1.16,8.64-4.94,9"/><path class="cls-6" d="M102.66,342.72s-5.08,5.08,0,7.62,7.62,4.23,4.23,9.31"/><path class="cls-6" d="M150.41,325.78s-6.18-3.66-7.38,1.89-2.21,8.43-8,6.41"/><path class="cls-6" d="M118.88,323.83s-3.9-6-7.45-1.6-5.74,6.56-10,2.18"/><path class="cls-6" d="M170.57,320.32s-.38,7.17,5.1,5.66,8.49-2,9.38,4.09"/><path class="cls-6" d="M175,343.06s-7.11-1-6.11,4.55,1.16,8.64-4.94,9"/><path class="cls-6" d="M145.89,260.8s-7.11-1-6.11,4.55,1.16,8.64-4.94,9"/><path class="cls-6" d="M211.53,322.29s-7.11-1-6.11,4.55,1.16,8.64-4.94,9"/><polygon class="cls-3" points="263.82 346.05 120.9 346.05 120.9 189 207.32 188.17 263.82 229.71 263.82 346.05"/><line class="cls-7" x1="142.51" y1="227.22" x2="142.51" y2="326.1"/><line class="cls-7" x1="233.91" y1="326.1" x2="142.51" y2="326.1"/><path class="cls-7" d="M240.56,245.09a8.73,8.73,0,0,1-8.73,8.73,8.83,8.83,0,0,1-.91,0,8.73,8.73,0,1,1,9.63-8.68Z"/><path class="cls-7" d="M231.42,253.81c-1.66,74.79-55.67,72.85-55.67,72.85"/><circle class="cls-8" cx="47.36" cy="417.92" r="20.36" transform="translate(-59.45 11.11) rotate(-8.25)"/><line class="cls-1" x1="203.16" y1="382.61" x2="203.16" y2="454.07"/><line class="cls-1" x1="67.72" y1="418.34" x2="73.72" y2="418.34"/><line class="cls-9" x1="84.87" y1="418.34" x2="190.76" y2="418.34"/><line class="cls-1" x1="196.33" y1="418.34" x2="202.33" y2="418.34"/><ellipse class="cls-10" cx="48.61" cy="416.23" rx="8.31" ry="8.69"/><rect class="cls-11" x="255.18" y="297.56" width="230.81" height="124.05"/><rect class="cls-2" x="268.34" y="309.96" width="23.31" height="15.04"/><rect class="cls-2" x="268.34" y="327.25" width="23.31" height="15.04"/><rect class="cls-2" x="268.34" y="344.55" width="23.31" height="15.04"/><rect class="cls-2" x="268.34" y="309.96" width="23.31" height="15.04"/><rect class="cls-2" x="268.34" y="327.25" width="23.31" height="15.04"/><rect class="cls-2" x="268.34" y="344.55" width="23.31" height="15.04"/><rect class="cls-2" x="293.9" y="309.96" width="23.31" height="15.04"/><rect class="cls-2" x="293.9" y="327.25" width="23.31" height="15.04"/><rect class="cls-2" x="293.9" y="344.55" width="23.31" height="15.04"/><rect class="cls-2" x="319.46" y="309.96" width="23.31" height="15.04"/><rect class="cls-2" x="319.46" y="327.25" width="23.31" height="15.04"/><rect class="cls-2" x="319.46" y="344.55" width="23.31" height="15.04"/><rect class="cls-2" x="345.02" y="309.96" width="23.31" height="15.04"/><rect class="cls-2" x="345.02" y="327.25" width="23.31" height="15.04"/><rect class="cls-2" x="345.02" y="344.55" width="23.31" height="15.04"/><rect class="cls-2" x="345.02" y="309.96" width="23.31" height="15.04"/><rect class="cls-2" x="345.02" y="327.25" width="23.31" height="15.04"/><rect class="cls-2" x="345.02" y="344.55" width="23.31" height="15.04"/><rect class="cls-2" x="370.58" y="309.96" width="23.31" height="15.04"/><rect class="cls-2" x="370.58" y="327.25" width="23.31" height="15.04"/><rect class="cls-2" x="370.58" y="344.55" width="23.31" height="15.04"/><rect class="cls-2" x="396.14" y="309.96" width="23.31" height="15.04"/><rect class="cls-2" x="396.14" y="327.25" width="23.31" height="15.04"/><rect class="cls-2" x="396.14" y="344.55" width="23.31" height="15.04"/><rect class="cls-2" x="421.71" y="309.96" width="23.31" height="15.04"/><rect class="cls-2" x="421.71" y="327.25" width="23.31" height="15.04"/><rect class="cls-2" x="421.71" y="344.55" width="23.31" height="15.04"/><rect class="cls-2" x="421.71" y="309.96" width="23.31" height="15.04"/><rect class="cls-2" x="421.71" y="327.25" width="23.31" height="15.04"/><rect class="cls-2" x="421.71" y="344.55" width="23.31" height="15.04"/><rect class="cls-2" x="447.27" y="309.96" width="23.31" height="15.04"/><rect class="cls-2" x="447.27" y="327.25" width="23.31" height="15.04"/><rect class="cls-2" x="447.27" y="344.55" width="23.31" height="15.04"/><circle class="cls-2" cx="277.17" cy="371.42" r="0.94"/><circle class="cls-2" cx="277.17" cy="378.19" r="0.94"/><circle class="cls-2" cx="277.17" cy="384.96" r="0.94"/><circle class="cls-2" cx="277.17" cy="390.97" r="0.94"/><circle class="cls-2" cx="277.17" cy="396.99" r="0.94"/><circle class="cls-2" cx="277.17" cy="403.75" r="0.94"/><circle class="cls-2" cx="277.17" cy="410.52" r="0.94"/><circle class="cls-2" cx="283.18" cy="371.42" r="0.94"/><circle class="cls-2" cx="283.18" cy="378.19" r="0.94"/><circle class="cls-2" cx="283.18" cy="384.96" r="0.94"/><circle class="cls-2" cx="283.18" cy="390.97" r="0.94"/><circle class="cls-2" cx="283.18" cy="396.99" r="0.94"/><circle class="cls-2" cx="283.18" cy="403.75" r="0.94"/><circle class="cls-2" cx="283.18" cy="410.52" r="0.94"/><circle class="cls-2" cx="289.2" cy="371.42" r="0.94"/><circle class="cls-2" cx="289.2" cy="378.19" r="0.94"/><circle class="cls-2" cx="289.2" cy="384.96" r="0.94"/><circle class="cls-2" cx="289.2" cy="390.97" r="0.94"/><circle class="cls-2" cx="289.2" cy="396.99" r="0.94"/><circle class="cls-2" cx="289.2" cy="403.75" r="0.94"/><circle class="cls-2" cx="289.2" cy="410.52" r="0.94"/><circle class="cls-2" cx="295.96" cy="371.42" r="0.94"/><circle class="cls-2" cx="295.96" cy="378.19" r="0.94"/><circle class="cls-2" cx="295.96" cy="384.96" r="0.94"/><circle class="cls-2" cx="295.96" cy="390.97" r="0.94"/><circle class="cls-2" cx="295.96" cy="396.99" r="0.94"/><circle class="cls-2" cx="295.96" cy="403.75" r="0.94"/><circle class="cls-2" cx="295.96" cy="410.52" r="0.94"/><circle class="cls-2" cx="301.98" cy="371.42" r="0.94"/><circle class="cls-2" cx="301.98" cy="378.19" r="0.94"/><circle class="cls-2" cx="301.98" cy="384.96" r="0.94"/><circle class="cls-2" cx="301.98" cy="390.97" r="0.94"/><circle class="cls-2" cx="301.98" cy="396.99" r="0.94"/><circle class="cls-2" cx="301.98" cy="403.75" r="0.94"/><circle class="cls-2" cx="301.98" cy="410.52" r="0.94"/><circle class="cls-2" cx="307.99" cy="371.42" r="0.94"/><circle class="cls-2" cx="307.99" cy="378.19" r="0.94"/><circle class="cls-2" cx="307.99" cy="384.96" r="0.94"/><circle class="cls-2" cx="307.99" cy="390.97" r="0.94"/><circle class="cls-2" cx="307.99" cy="396.99" r="0.94"/><circle class="cls-2" cx="307.99" cy="403.75" r="0.94"/><circle class="cls-2" cx="307.99" cy="410.52" r="0.94"/><circle class="cls-2" cx="314.01" cy="371.42" r="0.94"/><circle class="cls-2" cx="314.01" cy="378.19" r="0.94"/><circle class="cls-2" cx="314.01" cy="384.96" r="0.94"/><circle class="cls-2" cx="314.01" cy="390.97" r="0.94"/><circle class="cls-2" cx="314.01" cy="396.99" r="0.94"/><circle class="cls-2" cx="314.01" cy="403.75" r="0.94"/><circle class="cls-2" cx="314.01" cy="410.52" r="0.94"/><circle class="cls-2" cx="320.02" cy="371.42" r="0.94"/><circle class="cls-2" cx="320.02" cy="378.19" r="0.94"/><circle class="cls-2" cx="320.02" cy="384.96" r="0.94"/><circle class="cls-2" cx="320.02" cy="390.97" r="0.94"/><circle class="cls-2" cx="320.02" cy="396.99" r="0.94"/><circle class="cls-2" cx="320.02" cy="403.75" r="0.94"/><circle class="cls-2" cx="320.02" cy="410.52" r="0.94"/><circle class="cls-2" cx="326.79" cy="371.42" r="0.94"/><circle class="cls-2" cx="326.79" cy="378.19" r="0.94"/><circle class="cls-2" cx="326.79" cy="384.96" r="0.94"/><circle class="cls-2" cx="326.79" cy="390.97" r="0.94"/><circle class="cls-2" cx="326.79" cy="396.99" r="0.94"/><circle class="cls-2" cx="326.79" cy="403.75" r="0.94"/><circle class="cls-2" cx="326.79" cy="410.52" r="0.94"/><circle class="cls-2" cx="332.8" cy="371.42" r="0.94"/><circle class="cls-2" cx="332.8" cy="378.19" r="0.94"/><circle class="cls-2" cx="332.8" cy="384.96" r="0.94"/><circle class="cls-2" cx="332.8" cy="390.97" r="0.94"/><circle class="cls-2" cx="332.8" cy="396.99" r="0.94"/><circle class="cls-2" cx="332.8" cy="403.75" r="0.94"/><circle class="cls-2" cx="332.8" cy="410.52" r="0.94"/><circle class="cls-2" cx="339.57" cy="371.42" r="0.94"/><circle class="cls-2" cx="339.57" cy="378.19" r="0.94"/><circle class="cls-2" cx="339.57" cy="384.96" r="0.94"/><circle class="cls-2" cx="339.57" cy="390.97" r="0.94"/><circle class="cls-2" cx="339.57" cy="396.99" r="0.94"/><circle class="cls-2" cx="339.57" cy="403.75" r="0.94"/><circle class="cls-2" cx="339.57" cy="410.52" r="0.94"/><circle class="cls-2" cx="345.58" cy="371.42" r="0.94"/><circle class="cls-2" cx="345.58" cy="378.19" r="0.94"/><circle class="cls-2" cx="345.58" cy="384.96" r="0.94"/><circle class="cls-2" cx="345.58" cy="390.97" r="0.94"/><circle class="cls-2" cx="345.58" cy="396.99" r="0.94"/><circle class="cls-2" cx="345.58" cy="403.75" r="0.94"/><circle class="cls-2" cx="345.58" cy="410.52" r="0.94"/><circle class="cls-2" cx="351.6" cy="371.42" r="0.94"/><circle class="cls-2" cx="351.6" cy="378.19" r="0.94"/><circle class="cls-2" cx="351.6" cy="384.96" r="0.94"/><circle class="cls-2" cx="351.6" cy="390.97" r="0.94"/><circle class="cls-2" cx="351.6" cy="396.99" r="0.94"/><circle class="cls-2" cx="351.6" cy="403.75" r="0.94"/><circle class="cls-2" cx="351.6" cy="410.52" r="0.94"/><circle class="cls-2" cx="358.37" cy="371.42" r="0.94"/><circle class="cls-2" cx="358.37" cy="378.19" r="0.94"/><circle class="cls-2" cx="358.37" cy="384.96" r="0.94"/><circle class="cls-2" cx="358.37" cy="390.97" r="0.94"/><circle class="cls-2" cx="358.37" cy="396.99" r="0.94"/><circle class="cls-2" cx="358.37" cy="403.75" r="0.94"/><circle class="cls-2" cx="358.37" cy="410.52" r="0.94"/><circle class="cls-2" cx="364.38" cy="371.42" r="0.94"/><circle class="cls-2" cx="364.38" cy="378.19" r="0.94"/><circle class="cls-2" cx="364.38" cy="384.96" r="0.94"/><circle class="cls-2" cx="364.38" cy="390.97" r="0.94"/><circle class="cls-2" cx="364.38" cy="396.99" r="0.94"/><circle class="cls-2" cx="364.38" cy="403.75" r="0.94"/><circle class="cls-2" cx="364.38" cy="410.52" r="0.94"/><circle class="cls-2" cx="370.4" cy="371.42" r="0.94"/><circle class="cls-2" cx="370.4" cy="378.19" r="0.94"/><circle class="cls-2" cx="370.4" cy="384.96" r="0.94"/><circle class="cls-2" cx="370.4" cy="390.97" r="0.94"/><circle class="cls-2" cx="370.4" cy="396.99" r="0.94"/><circle class="cls-2" cx="370.4" cy="403.75" r="0.94"/><circle class="cls-2" cx="370.4" cy="410.52" r="0.94"/><circle class="cls-2" cx="376.41" cy="371.42" r="0.94"/><circle class="cls-2" cx="376.41" cy="378.19" r="0.94"/><circle class="cls-2" cx="376.41" cy="384.96" r="0.94"/><circle class="cls-2" cx="376.41" cy="390.97" r="0.94"/><circle class="cls-2" cx="376.41" cy="396.99" r="0.94"/><circle class="cls-2" cx="376.41" cy="403.75" r="0.94"/><circle class="cls-2" cx="376.41" cy="410.52" r="0.94"/><circle class="cls-2" cx="382.42" cy="371.42" r="0.94"/><circle class="cls-2" cx="382.42" cy="378.19" r="0.94"/><circle class="cls-2" cx="382.42" cy="384.96" r="0.94"/><circle class="cls-2" cx="382.42" cy="390.97" r="0.94"/><circle class="cls-2" cx="382.42" cy="396.99" r="0.94"/><circle class="cls-2" cx="382.42" cy="403.75" r="0.94"/><circle class="cls-2" cx="382.42" cy="410.52" r="0.94"/><circle class="cls-2" cx="389.19" cy="371.42" r="0.94"/><circle class="cls-2" cx="389.19" cy="378.19" r="0.94"/><circle class="cls-2" cx="389.19" cy="384.96" r="0.94"/><circle class="cls-2" cx="389.19" cy="390.97" r="0.94"/><circle class="cls-2" cx="389.19" cy="396.99" r="0.94"/><circle class="cls-2" cx="389.19" cy="403.75" r="0.94"/><circle class="cls-2" cx="389.19" cy="410.52" r="0.94"/><circle class="cls-2" cx="395.21" cy="371.42" r="0.94"/><circle class="cls-2" cx="395.21" cy="378.19" r="0.94"/><circle class="cls-2" cx="395.21" cy="384.96" r="0.94"/><circle class="cls-2" cx="395.21" cy="390.97" r="0.94"/><circle class="cls-2" cx="395.21" cy="396.99" r="0.94"/><circle class="cls-2" cx="395.21" cy="403.75" r="0.94"/><circle class="cls-2" cx="395.21" cy="410.52" r="0.94"/><circle class="cls-2" cx="401.22" cy="371.42" r="0.94"/><circle class="cls-2" cx="401.22" cy="378.19" r="0.94"/><circle class="cls-2" cx="401.22" cy="384.96" r="0.94"/><circle class="cls-2" cx="401.22" cy="390.97" r="0.94"/><circle class="cls-2" cx="401.22" cy="396.99" r="0.94"/><circle class="cls-2" cx="401.22" cy="403.75" r="0.94"/><circle class="cls-2" cx="401.22" cy="410.52" r="0.94"/><circle class="cls-2" cx="407.23" cy="371.42" r="0.94"/><circle class="cls-2" cx="407.23" cy="378.19" r="0.94"/><circle class="cls-2" cx="407.23" cy="384.96" r="0.94"/><circle class="cls-2" cx="407.23" cy="390.97" r="0.94"/><circle class="cls-2" cx="407.23" cy="396.99" r="0.94"/><circle class="cls-2" cx="407.23" cy="403.75" r="0.94"/><circle class="cls-2" cx="407.23" cy="410.52" r="0.94"/><circle class="cls-2" cx="413.25" cy="371.42" r="0.94"/><circle class="cls-2" cx="413.25" cy="378.19" r="0.94"/><circle class="cls-2" cx="413.25" cy="384.96" r="0.94"/><circle class="cls-2" cx="413.25" cy="390.97" r="0.94"/><circle class="cls-2" cx="413.25" cy="396.99" r="0.94"/><circle class="cls-2" cx="413.25" cy="403.75" r="0.94"/><circle class="cls-2" cx="413.25" cy="410.52" r="0.94"/><circle class="cls-2" cx="420.02" cy="371.42" r="0.94"/><circle class="cls-2" cx="420.02" cy="378.19" r="0.94"/><circle class="cls-2" cx="420.02" cy="384.96" r="0.94"/><circle class="cls-2" cx="420.02" cy="390.97" r="0.94"/><circle class="cls-2" cx="420.02" cy="396.99" r="0.94"/><circle class="cls-2" cx="420.02" cy="403.75" r="0.94"/><circle class="cls-2" cx="420.02" cy="410.52" r="0.94"/><circle class="cls-2" cx="426.03" cy="371.42" r="0.94"/><circle class="cls-2" cx="426.03" cy="378.19" r="0.94"/><circle class="cls-2" cx="426.03" cy="384.96" r="0.94"/><circle class="cls-2" cx="426.03" cy="390.97" r="0.94"/><circle class="cls-2" cx="426.03" cy="396.99" r="0.94"/><circle class="cls-2" cx="426.03" cy="403.75" r="0.94"/><circle class="cls-2" cx="426.03" cy="410.52" r="0.94"/><circle class="cls-2" cx="432.04" cy="371.42" r="0.94"/><circle class="cls-2" cx="432.04" cy="378.19" r="0.94"/><circle class="cls-2" cx="432.04" cy="384.96" r="0.94"/><circle class="cls-2" cx="432.04" cy="390.97" r="0.94"/><circle class="cls-2" cx="432.04" cy="396.99" r="0.94"/><circle class="cls-2" cx="432.04" cy="403.75" r="0.94"/><circle class="cls-2" cx="432.04" cy="410.52" r="0.94"/><circle class="cls-2" cx="438.06" cy="371.42" r="0.94"/><circle class="cls-2" cx="438.06" cy="378.19" r="0.94"/><circle class="cls-2" cx="438.06" cy="384.96" r="0.94"/><circle class="cls-2" cx="438.06" cy="390.97" r="0.94"/><circle class="cls-2" cx="438.06" cy="396.99" r="0.94"/><circle class="cls-2" cx="438.06" cy="403.75" r="0.94"/><circle class="cls-2" cx="438.06" cy="410.52" r="0.94"/><circle class="cls-2" cx="444.07" cy="371.42" r="0.94"/><circle class="cls-2" cx="444.07" cy="378.19" r="0.94"/><circle class="cls-2" cx="444.07" cy="384.96" r="0.94"/><circle class="cls-2" cx="444.07" cy="390.97" r="0.94"/><circle class="cls-2" cx="444.07" cy="396.99" r="0.94"/><circle class="cls-2" cx="444.07" cy="403.75" r="0.94"/><circle class="cls-2" cx="444.07" cy="410.52" r="0.94"/><circle class="cls-2" cx="450.84" cy="371.42" r="0.94"/><circle class="cls-2" cx="450.84" cy="378.19" r="0.94"/><circle class="cls-2" cx="450.84" cy="384.96" r="0.94"/><circle class="cls-2" cx="450.84" cy="390.97" r="0.94"/><circle class="cls-2" cx="450.84" cy="396.99" r="0.94"/><circle class="cls-2" cx="450.84" cy="403.75" r="0.94"/><circle class="cls-2" cx="450.84" cy="410.52" r="0.94"/><circle class="cls-2" cx="456.85" cy="371.42" r="0.94"/><circle class="cls-2" cx="456.85" cy="378.19" r="0.94"/><circle class="cls-2" cx="456.85" cy="384.96" r="0.94"/><circle class="cls-2" cx="456.85" cy="390.97" r="0.94"/><circle class="cls-2" cx="456.85" cy="396.99" r="0.94"/><circle class="cls-2" cx="456.85" cy="403.75" r="0.94"/><circle class="cls-2" cx="456.85" cy="410.52" r="0.94"/><rect class="cls-11" x="651.01" y="480.7" width="94.73" height="95.41"/><path class="cls-2" d="M520.2,560.72s5.26-26.16,21.8-44.63,40.6-22.31,50.37-23.85,36.84-5.39,48.87-15.39,24.06-16.16,38.34-49.24,42.85-33.86,52.63-33.86l-.75,168.51"/><ellipse class="cls-12" cx="715.12" cy="379.96" rx="0.79" ry="0.81"/><ellipse class="cls-12" cx="709.44" cy="379.96" rx="0.79" ry="0.81"/><ellipse class="cls-12" cx="703.76" cy="379.96" rx="0.79" ry="0.81"/><ellipse class="cls-12" cx="698.71" cy="379.96" rx="0.79" ry="0.81"/><ellipse class="cls-12" cx="693.66" cy="379.96" rx="0.79" ry="0.81"/><ellipse class="cls-12" cx="687.98" cy="379.96" rx="0.79" ry="0.81"/><ellipse class="cls-12" cx="682.29" cy="379.96" rx="0.79" ry="0.81"/><ellipse class="cls-12" cx="676.61" cy="379.96" rx="0.81" ry="0.79" transform="translate(256.67 1032.52) rotate(-86.55)"/><ellipse class="cls-12" cx="715.12" cy="385.13" rx="0.79" ry="0.81"/><ellipse class="cls-12" cx="709.44" cy="385.13" rx="0.79" ry="0.81"/><ellipse class="cls-12" cx="703.76" cy="385.13" rx="0.79" ry="0.81"/><ellipse class="cls-12" cx="698.71" cy="385.13" rx="0.79" ry="0.81"/><ellipse class="cls-12" cx="693.66" cy="385.13" rx="0.79" ry="0.81"/><ellipse class="cls-12" cx="687.98" cy="385.13" rx="0.79" ry="0.81"/><ellipse class="cls-12" cx="682.29" cy="385.13" rx="0.79" ry="0.81"/><ellipse class="cls-12" cx="676.61" cy="385.13" rx="0.81" ry="0.79" transform="translate(251.51 1037.38) rotate(-86.55)"/><ellipse class="cls-12" cx="715.12" cy="390.3" rx="0.79" ry="0.81"/><ellipse class="cls-12" cx="709.44" cy="390.3" rx="0.79" ry="0.81"/><ellipse class="cls-12" cx="703.76" cy="390.3" rx="0.79" ry="0.81"/><ellipse class="cls-12" cx="698.71" cy="390.3" rx="0.79" ry="0.81"/><ellipse class="cls-12" cx="693.66" cy="390.3" rx="0.79" ry="0.81"/><ellipse class="cls-12" cx="687.98" cy="390.3" rx="0.79" ry="0.81"/><ellipse class="cls-12" cx="682.29" cy="390.3" rx="0.79" ry="0.81"/><ellipse class="cls-12" cx="676.61" cy="390.3" rx="0.81" ry="0.79" transform="translate(246.36 1042.24) rotate(-86.55)"/><ellipse class="cls-12" cx="715.12" cy="396.12" rx="0.79" ry="0.81"/><ellipse class="cls-12" cx="709.44" cy="396.12" rx="0.79" ry="0.81"/><ellipse class="cls-12" cx="703.76" cy="396.12" rx="0.79" ry="0.81"/><ellipse class="cls-12" cx="698.71" cy="396.12" rx="0.79" ry="0.81"/><ellipse class="cls-12" cx="693.66" cy="396.12" rx="0.79" ry="0.81"/><ellipse class="cls-12" cx="687.98" cy="396.12" rx="0.79" ry="0.81"/><ellipse class="cls-12" cx="682.29" cy="396.12" rx="0.79" ry="0.81"/><ellipse class="cls-12" cx="676.61" cy="396.12" rx="0.81" ry="0.79" transform="translate(240.55 1047.7) rotate(-86.55)"/><ellipse class="cls-12" cx="715.12" cy="401.29" rx="0.79" ry="0.81"/><ellipse class="cls-12" cx="709.44" cy="401.29" rx="0.79" ry="0.81"/><ellipse class="cls-12" cx="703.76" cy="401.29" rx="0.79" ry="0.81"/><ellipse class="cls-12" cx="698.71" cy="401.29" rx="0.79" ry="0.81"/><ellipse class="cls-12" cx="693.66" cy="401.29" rx="0.79" ry="0.81"/><ellipse class="cls-12" cx="687.98" cy="401.29" rx="0.79" ry="0.81"/><ellipse class="cls-12" cx="682.29" cy="401.29" rx="0.79" ry="0.81"/><ellipse class="cls-12" cx="676.61" cy="401.29" rx="0.81" ry="0.79" transform="translate(235.39 1052.56) rotate(-86.55)"/><ellipse class="cls-12" cx="715.12" cy="406.46" rx="0.79" ry="0.81"/><ellipse class="cls-12" cx="709.44" cy="406.46" rx="0.79" ry="0.81"/><ellipse class="cls-12" cx="703.76" cy="406.46" rx="0.79" ry="0.81"/><ellipse class="cls-12" cx="698.71" cy="406.46" rx="0.79" ry="0.81"/><ellipse class="cls-12" cx="693.66" cy="406.46" rx="0.79" ry="0.81"/><ellipse class="cls-12" cx="687.98" cy="406.46" rx="0.79" ry="0.81"/><ellipse class="cls-12" cx="682.29" cy="406.46" rx="0.79" ry="0.81"/><ellipse class="cls-12" cx="676.61" cy="406.46" rx="0.81" ry="0.79" transform="translate(230.23 1057.42) rotate(-86.55)"/><ellipse class="cls-12" cx="715.12" cy="411.62" rx="0.79" ry="0.81"/><ellipse class="cls-12" cx="709.44" cy="411.62" rx="0.79" ry="0.81"/><ellipse class="cls-12" cx="703.76" cy="411.62" rx="0.79" ry="0.81"/><ellipse class="cls-12" cx="698.71" cy="411.62" rx="0.79" ry="0.81"/><ellipse class="cls-12" cx="693.66" cy="411.62" rx="0.79" ry="0.81"/><ellipse class="cls-12" cx="687.98" cy="411.62" rx="0.79" ry="0.81"/><ellipse class="cls-12" cx="682.29" cy="411.62" rx="0.79" ry="0.81"/><ellipse class="cls-12" cx="676.61" cy="411.62" rx="0.81" ry="0.79" transform="translate(225.07 1062.28) rotate(-86.55)"/><ellipse class="cls-12" cx="715.12" cy="416.79" rx="0.79" ry="0.81"/><ellipse class="cls-12" cx="709.44" cy="416.79" rx="0.79" ry="0.81"/><ellipse class="cls-12" cx="703.76" cy="416.79" rx="0.79" ry="0.81"/><ellipse class="cls-12" cx="698.71" cy="416.79" rx="0.79" ry="0.81"/><ellipse class="cls-12" cx="693.66" cy="416.79" rx="0.79" ry="0.81"/><ellipse class="cls-12" cx="687.98" cy="416.79" rx="0.79" ry="0.81"/><ellipse class="cls-12" cx="682.29" cy="416.79" rx="0.79" ry="0.81"/><ellipse class="cls-12" cx="676.61" cy="416.79" rx="0.81" ry="0.79" transform="translate(219.91 1067.14) rotate(-86.55)"/><ellipse class="cls-12" cx="715.12" cy="422.61" rx="0.79" ry="0.81"/><ellipse class="cls-12" cx="709.44" cy="422.61" rx="0.79" ry="0.81"/><ellipse class="cls-12" cx="703.76" cy="422.61" rx="0.79" ry="0.81"/><ellipse class="cls-12" cx="698.71" cy="422.61" rx="0.79" ry="0.81"/><ellipse class="cls-12" cx="693.66" cy="422.61" rx="0.79" ry="0.81"/><ellipse class="cls-12" cx="687.98" cy="422.61" rx="0.79" ry="0.81"/><ellipse class="cls-12" cx="682.29" cy="422.61" rx="0.79" ry="0.81"/><ellipse class="cls-12" cx="676.61" cy="422.61" rx="0.81" ry="0.79" transform="translate(214.11 1072.6) rotate(-86.55)"/><ellipse class="cls-12" cx="715.12" cy="427.78" rx="0.79" ry="0.81"/><ellipse class="cls-12" cx="709.44" cy="427.78" rx="0.79" ry="0.81"/><ellipse class="cls-12" cx="703.76" cy="427.78" rx="0.79" ry="0.81"/><ellipse class="cls-12" cx="698.71" cy="427.78" rx="0.79" ry="0.81"/><ellipse class="cls-12" cx="693.66" cy="427.78" rx="0.79" ry="0.81"/><ellipse class="cls-12" cx="687.98" cy="427.78" rx="0.79" ry="0.81"/><ellipse class="cls-12" cx="682.29" cy="427.78" rx="0.79" ry="0.81"/><ellipse class="cls-12" cx="676.61" cy="427.78" rx="0.81" ry="0.79" transform="translate(208.95 1077.46) rotate(-86.55)"/><ellipse class="cls-12" cx="715.12" cy="433.59" rx="0.79" ry="0.81"/><ellipse class="cls-12" cx="709.44" cy="433.59" rx="0.79" ry="0.81"/><ellipse class="cls-12" cx="703.76" cy="433.59" rx="0.79" ry="0.81"/><ellipse class="cls-12" cx="698.71" cy="433.59" rx="0.79" ry="0.81"/><ellipse class="cls-12" cx="693.66" cy="433.59" rx="0.79" ry="0.81"/><ellipse class="cls-12" cx="687.98" cy="433.59" rx="0.79" ry="0.81"/><ellipse class="cls-12" cx="682.29" cy="433.59" rx="0.79" ry="0.81"/><ellipse class="cls-12" cx="676.61" cy="433.59" rx="0.81" ry="0.79" transform="translate(203.14 1082.92) rotate(-86.55)"/><ellipse class="cls-12" cx="715.12" cy="438.76" rx="0.79" ry="0.81"/><ellipse class="cls-12" cx="709.44" cy="438.76" rx="0.79" ry="0.81"/><ellipse class="cls-12" cx="703.76" cy="438.76" rx="0.79" ry="0.81"/><ellipse class="cls-12" cx="698.71" cy="438.76" rx="0.79" ry="0.81"/><ellipse class="cls-12" cx="693.66" cy="438.76" rx="0.79" ry="0.81"/><ellipse class="cls-12" cx="687.98" cy="438.76" rx="0.79" ry="0.81"/><ellipse class="cls-12" cx="682.29" cy="438.76" rx="0.79" ry="0.81"/><ellipse class="cls-12" cx="676.61" cy="438.76" rx="0.81" ry="0.79" transform="translate(197.98 1087.78) rotate(-86.55)"/><ellipse class="cls-12" cx="715.12" cy="443.93" rx="0.79" ry="0.81"/><ellipse class="cls-12" cx="709.44" cy="443.93" rx="0.79" ry="0.81"/><ellipse class="cls-12" cx="703.76" cy="443.93" rx="0.79" ry="0.81"/><ellipse class="cls-12" cx="698.71" cy="443.93" rx="0.79" ry="0.81"/><ellipse class="cls-12" cx="693.66" cy="443.93" rx="0.79" ry="0.81"/><ellipse class="cls-12" cx="687.98" cy="443.93" rx="0.79" ry="0.81"/><ellipse class="cls-12" cx="682.29" cy="443.93" rx="0.79" ry="0.81"/><ellipse class="cls-12" cx="676.61" cy="443.93" rx="0.81" ry="0.79" transform="translate(192.83 1092.64) rotate(-86.55)"/><ellipse class="cls-12" cx="715.12" cy="449.74" rx="0.79" ry="0.81"/><ellipse class="cls-12" cx="709.44" cy="449.74" rx="0.79" ry="0.81"/><ellipse class="cls-12" cx="703.76" cy="449.74" rx="0.79" ry="0.81"/><ellipse class="cls-12" cx="698.71" cy="449.74" rx="0.79" ry="0.81"/><ellipse class="cls-12" cx="693.66" cy="449.74" rx="0.79" ry="0.81"/><ellipse class="cls-12" cx="687.98" cy="449.74" rx="0.79" ry="0.81"/><ellipse class="cls-12" cx="682.29" cy="449.74" rx="0.79" ry="0.81"/><ellipse class="cls-12" cx="676.61" cy="449.74" rx="0.81" ry="0.79" transform="translate(187.02 1098.11) rotate(-86.55)"/><ellipse class="cls-12" cx="715.12" cy="454.91" rx="0.79" ry="0.81"/><ellipse class="cls-12" cx="709.44" cy="454.91" rx="0.79" ry="0.81"/><ellipse class="cls-12" cx="703.76" cy="454.91" rx="0.79" ry="0.81"/><ellipse class="cls-12" cx="698.71" cy="454.91" rx="0.79" ry="0.81"/><ellipse class="cls-12" cx="693.66" cy="454.91" rx="0.79" ry="0.81"/><ellipse class="cls-12" cx="687.98" cy="454.91" rx="0.79" ry="0.81"/><ellipse class="cls-12" cx="682.29" cy="454.91" rx="0.79" ry="0.81"/><ellipse class="cls-12" cx="676.61" cy="454.91" rx="0.81" ry="0.79" transform="translate(181.86 1102.97) rotate(-86.55)"/><ellipse class="cls-12" cx="715.12" cy="460.08" rx="0.79" ry="0.81"/><ellipse class="cls-12" cx="709.44" cy="460.08" rx="0.79" ry="0.81"/><ellipse class="cls-12" cx="703.76" cy="460.08" rx="0.79" ry="0.81"/><ellipse class="cls-12" cx="698.71" cy="460.08" rx="0.79" ry="0.81"/><ellipse class="cls-12" cx="693.66" cy="460.08" rx="0.79" ry="0.81"/><ellipse class="cls-12" cx="687.98" cy="460.08" rx="0.79" ry="0.81"/><ellipse class="cls-12" cx="682.29" cy="460.08" rx="0.79" ry="0.81"/><ellipse class="cls-12" cx="676.61" cy="460.08" rx="0.81" ry="0.79" transform="translate(176.7 1107.82) rotate(-86.55)"/><ellipse class="cls-12" cx="715.12" cy="465.25" rx="0.79" ry="0.81"/><ellipse class="cls-12" cx="709.44" cy="465.25" rx="0.79" ry="0.81"/><ellipse class="cls-12" cx="703.76" cy="465.25" rx="0.79" ry="0.81"/><ellipse class="cls-12" cx="698.71" cy="465.25" rx="0.79" ry="0.81"/><ellipse class="cls-12" cx="693.66" cy="465.25" rx="0.79" ry="0.81"/><ellipse class="cls-12" cx="687.98" cy="465.25" rx="0.79" ry="0.81"/><ellipse class="cls-12" cx="682.29" cy="465.25" rx="0.79" ry="0.81"/><ellipse class="cls-12" cx="676.61" cy="465.25" rx="0.81" ry="0.79" transform="translate(171.54 1112.68) rotate(-86.55)"/><ellipse class="cls-12" cx="715.12" cy="470.42" rx="0.79" ry="0.81"/><ellipse class="cls-12" cx="709.44" cy="470.42" rx="0.79" ry="0.81"/><ellipse class="cls-12" cx="703.76" cy="470.42" rx="0.79" ry="0.81"/><ellipse class="cls-12" cx="698.71" cy="470.42" rx="0.79" ry="0.81"/><ellipse class="cls-12" cx="693.66" cy="470.42" rx="0.79" ry="0.81"/><ellipse class="cls-12" cx="687.98" cy="470.42" rx="0.79" ry="0.81"/><ellipse class="cls-12" cx="682.29" cy="470.42" rx="0.79" ry="0.81"/><ellipse class="cls-12" cx="676.61" cy="470.42" rx="0.81" ry="0.79" transform="translate(166.38 1117.54) rotate(-86.55)"/><ellipse class="cls-12" cx="715.12" cy="476.23" rx="0.79" ry="0.81"/><ellipse class="cls-12" cx="709.44" cy="476.23" rx="0.79" ry="0.81"/><ellipse class="cls-12" cx="703.76" cy="476.23" rx="0.79" ry="0.81"/><ellipse class="cls-12" cx="698.71" cy="476.23" rx="0.79" ry="0.81"/><ellipse class="cls-12" cx="693.66" cy="476.23" rx="0.79" ry="0.81"/><ellipse class="cls-12" cx="687.98" cy="476.23" rx="0.79" ry="0.81"/><ellipse class="cls-12" cx="682.29" cy="476.23" rx="0.79" ry="0.81"/><ellipse class="cls-12" cx="676.61" cy="476.23" rx="0.81" ry="0.79" transform="translate(160.58 1123.01) rotate(-86.55)"/><ellipse class="cls-12" cx="715.12" cy="481.4" rx="0.79" ry="0.81"/><ellipse class="cls-12" cx="709.44" cy="481.4" rx="0.79" ry="0.81"/><ellipse class="cls-12" cx="703.76" cy="481.4" rx="0.79" ry="0.81"/><ellipse class="cls-12" cx="698.71" cy="481.4" rx="0.79" ry="0.81"/><ellipse class="cls-12" cx="693.66" cy="481.4" rx="0.79" ry="0.81"/><ellipse class="cls-12" cx="687.98" cy="481.4" rx="0.79" ry="0.81"/><ellipse class="cls-12" cx="682.29" cy="481.4" rx="0.79" ry="0.81"/><ellipse class="cls-12" cx="676.61" cy="481.4" rx="0.81" ry="0.79" transform="translate(155.42 1127.86) rotate(-86.55)"/><ellipse class="cls-12" cx="715.12" cy="486.57" rx="0.79" ry="0.81"/><ellipse class="cls-12" cx="709.44" cy="486.57" rx="0.79" ry="0.81"/><ellipse class="cls-12" cx="703.76" cy="486.57" rx="0.79" ry="0.81"/><ellipse class="cls-12" cx="698.71" cy="486.57" rx="0.79" ry="0.81"/><ellipse class="cls-12" cx="693.66" cy="486.57" rx="0.79" ry="0.81"/><ellipse class="cls-12" cx="687.98" cy="486.57" rx="0.79" ry="0.81"/><ellipse class="cls-12" cx="682.29" cy="486.57" rx="0.79" ry="0.81"/><ellipse class="cls-12" cx="676.61" cy="486.57" rx="0.81" ry="0.79" transform="translate(150.26 1132.72) rotate(-86.55)"/><ellipse class="cls-12" cx="715.12" cy="491.74" rx="0.79" ry="0.81"/><ellipse class="cls-12" cx="709.44" cy="491.74" rx="0.79" ry="0.81"/><ellipse class="cls-12" cx="703.76" cy="491.74" rx="0.79" ry="0.81"/><ellipse class="cls-12" cx="698.71" cy="491.74" rx="0.79" ry="0.81"/><ellipse class="cls-12" cx="693.66" cy="491.74" rx="0.79" ry="0.81"/><ellipse class="cls-12" cx="687.98" cy="491.74" rx="0.79" ry="0.81"/><ellipse class="cls-12" cx="682.29" cy="491.74" rx="0.79" ry="0.81"/><ellipse class="cls-12" cx="676.61" cy="491.74" rx="0.81" ry="0.79" transform="translate(145.1 1137.58) rotate(-86.55)"/><ellipse class="cls-12" cx="715.12" cy="496.91" rx="0.79" ry="0.81"/><ellipse class="cls-12" cx="709.44" cy="496.91" rx="0.79" ry="0.81"/><ellipse class="cls-12" cx="703.76" cy="496.91" rx="0.79" ry="0.81"/><ellipse class="cls-12" cx="698.71" cy="496.91" rx="0.79" ry="0.81"/><ellipse class="cls-12" cx="693.66" cy="496.91" rx="0.79" ry="0.81"/><ellipse class="cls-12" cx="687.98" cy="496.91" rx="0.79" ry="0.81"/><ellipse class="cls-12" cx="682.29" cy="496.91" rx="0.79" ry="0.81"/><ellipse class="cls-12" cx="676.61" cy="496.91" rx="0.81" ry="0.79" transform="translate(139.94 1142.44) rotate(-86.55)"/><ellipse class="cls-12" cx="715.12" cy="502.73" rx="0.79" ry="0.81"/><ellipse class="cls-12" cx="709.44" cy="502.73" rx="0.79" ry="0.81"/><ellipse class="cls-12" cx="703.76" cy="502.73" rx="0.79" ry="0.81"/><ellipse class="cls-12" cx="698.71" cy="502.73" rx="0.79" ry="0.81"/><ellipse class="cls-12" cx="693.66" cy="502.73" rx="0.79" ry="0.81"/><ellipse class="cls-12" cx="687.98" cy="502.73" rx="0.79" ry="0.81"/><ellipse class="cls-12" cx="682.29" cy="502.73" rx="0.79" ry="0.81"/><ellipse class="cls-12" cx="676.61" cy="502.73" rx="0.81" ry="0.79" transform="translate(134.14 1147.9) rotate(-86.55)"/><ellipse class="cls-12" cx="715.12" cy="507.89" rx="0.79" ry="0.81"/><ellipse class="cls-12" cx="709.44" cy="507.89" rx="0.79" ry="0.81"/><ellipse class="cls-12" cx="703.76" cy="507.89" rx="0.79" ry="0.81"/><ellipse class="cls-12" cx="698.71" cy="507.89" rx="0.79" ry="0.81"/><ellipse class="cls-12" cx="693.66" cy="507.89" rx="0.79" ry="0.81"/><ellipse class="cls-12" cx="687.98" cy="507.89" rx="0.79" ry="0.81"/><ellipse class="cls-12" cx="682.29" cy="507.89" rx="0.79" ry="0.81"/><ellipse class="cls-12" cx="676.61" cy="507.89" rx="0.81" ry="0.79" transform="translate(128.98 1152.76) rotate(-86.55)"/><ellipse class="cls-12" cx="715.12" cy="513.06" rx="0.79" ry="0.81"/><ellipse class="cls-12" cx="709.44" cy="513.06" rx="0.79" ry="0.81"/><ellipse class="cls-12" cx="703.76" cy="513.06" rx="0.79" ry="0.81"/><ellipse class="cls-12" cx="698.71" cy="513.06" rx="0.79" ry="0.81"/><ellipse class="cls-12" cx="693.66" cy="513.06" rx="0.79" ry="0.81"/><ellipse class="cls-12" cx="687.98" cy="513.06" rx="0.79" ry="0.81"/><ellipse class="cls-12" cx="682.29" cy="513.06" rx="0.79" ry="0.81"/><ellipse class="cls-12" cx="676.61" cy="513.06" rx="0.81" ry="0.79" transform="translate(123.82 1157.62) rotate(-86.55)"/><ellipse class="cls-12" cx="715.12" cy="518.23" rx="0.79" ry="0.81"/><ellipse class="cls-12" cx="709.44" cy="518.23" rx="0.79" ry="0.81"/><ellipse class="cls-12" cx="703.76" cy="518.23" rx="0.79" ry="0.81"/><ellipse class="cls-12" cx="698.71" cy="518.23" rx="0.79" ry="0.81"/><ellipse class="cls-12" cx="693.66" cy="518.23" rx="0.79" ry="0.81"/><ellipse class="cls-12" cx="687.98" cy="518.23" rx="0.79" ry="0.81"/><ellipse class="cls-12" cx="682.29" cy="518.23" rx="0.79" ry="0.81"/><ellipse class="cls-12" cx="676.61" cy="518.23" rx="0.81" ry="0.79" transform="translate(118.66 1162.48) rotate(-86.55)"/><ellipse class="cls-12" cx="715.12" cy="523.4" rx="0.79" ry="0.81"/><ellipse class="cls-12" cx="709.44" cy="523.4" rx="0.79" ry="0.81"/><ellipse class="cls-12" cx="703.76" cy="523.4" rx="0.79" ry="0.81"/><ellipse class="cls-12" cx="698.71" cy="523.4" rx="0.79" ry="0.81"/><ellipse class="cls-12" cx="693.66" cy="523.4" rx="0.79" ry="0.81"/><ellipse class="cls-12" cx="687.98" cy="523.4" rx="0.79" ry="0.81"/><ellipse class="cls-12" cx="682.29" cy="523.4" rx="0.79" ry="0.81"/><ellipse class="cls-12" cx="676.61" cy="523.4" rx="0.81" ry="0.79" transform="translate(113.5 1167.34) rotate(-86.55)"/><ellipse class="cls-12" cx="715.12" cy="529.22" rx="0.79" ry="0.81"/><ellipse class="cls-12" cx="709.44" cy="529.22" rx="0.79" ry="0.81"/><ellipse class="cls-12" cx="703.76" cy="529.22" rx="0.79" ry="0.81"/><ellipse class="cls-12" cx="698.71" cy="529.22" rx="0.79" ry="0.81"/><ellipse class="cls-12" cx="693.66" cy="529.22" rx="0.79" ry="0.81"/><ellipse class="cls-12" cx="687.98" cy="529.22" rx="0.79" ry="0.81"/><ellipse class="cls-12" cx="682.29" cy="529.22" rx="0.79" ry="0.81"/><ellipse class="cls-12" cx="676.61" cy="529.22" rx="0.81" ry="0.79" transform="translate(107.69 1172.8) rotate(-86.55)"/><ellipse class="cls-12" cx="715.12" cy="534.38" rx="0.79" ry="0.81"/><ellipse class="cls-12" cx="709.44" cy="534.38" rx="0.79" ry="0.81"/><ellipse class="cls-12" cx="703.76" cy="534.38" rx="0.79" ry="0.81"/><ellipse class="cls-12" cx="698.71" cy="534.38" rx="0.79" ry="0.81"/><ellipse class="cls-12" cx="693.66" cy="534.38" rx="0.79" ry="0.81"/><ellipse class="cls-12" cx="687.98" cy="534.38" rx="0.79" ry="0.81"/><ellipse class="cls-12" cx="682.29" cy="534.38" rx="0.79" ry="0.81"/><ellipse class="cls-12" cx="676.61" cy="534.38" rx="0.81" ry="0.79" transform="translate(102.53 1177.66) rotate(-86.55)"/><path class="cls-1" d="M221.72,525.73h33.83s12-2.26,12.78,12.78.75,9.77.75,9.77-.75,12,14.28,12h80.45s11.28,0,11.28-13.53V525.73s0-10.53,10.53-10.53H546.51"/><line class="cls-12" x1="297.79" y1="451.61" x2="298.71" y2="452.5"/><polygon class="cls-13" points="256.11 464.93 240.36 464.93 227.39 477.35 238.51 489.78 254.25 489.78 243.14 477.35 256.11 464.93"/><ellipse class="cls-14" cx="313.36" cy="477.97" rx="4.63" ry="4.44"/><line class="cls-1" x1="312.61" y1="477.35" x2="242.21" y2="477.35"/><ellipse class="cls-15" cx="315.39" cy="478.24" rx="4.63" ry="4.44"/><ellipse class="cls-1" cx="313.36" cy="477.97" rx="17.14" ry="16.42"/><ellipse class="cls-1" cx="313.36" cy="477.97" rx="31.49" ry="30.18"/><ellipse class="cls-1" cx="313.36" cy="477.97" rx="46.56" ry="44.62"/><path class="cls-1" d="M360.27,478.51s10.19,5.33,25-15.09,20.38-21.3,26.86-21.3,13.89.89,25,16.86,14.82,17.75,17.6,18.64,13,4.44,21.3-1.78,19.45-22.19,19.45-22.19,7.12-11.54,20.38-11.54c7.41,0,14.82,8,18.53,12.43S548.31,472.3,552,475s6.48,4.44,13.89,4.44c8.39,0,12-1.78,16.67-7.1s11-14.26,13-16.86c6.24-8.37,11.12-14.2,19.45-14.2,10.19,0,15.75,8,22.23,15.09s18.53,21.3,18.53,21.3"/><rect class="cls-1" x="255.55" y="142.31" width="228.55" height="148.11"/><polygon class="cls-1" points="255.55 245.31 303.67 245.31 303.67 262.6 327.73 262.6 327.73 276.13 354.04 275.38 354.04 297.18 255.55 297.18 255.55 245.31"/><rect class="cls-16" x="259.31" y="251.32" width="35.34" height="8.27"/><path class="cls-16" d="M340.51,262.6l1.5,5.26s-9,3-10.53,4.51-1.5,2.26-1.5,2.26-.75,1.37,0,1.44,21.08.19,21.82-.62.74,3.7.74-2.32a25.83,25.83,0,0,0-2.26-10.53Z"/><path class="cls-16" d="M383.36,288.16l.75,3.76-12,5.26,1.5.75h21.05s.75,0,0-2.26l-3-9Z"/><path class="cls-17" d="M366.07,241.55l1.06,7.1,1.19,7.94s7.52,23.31,7.52,24.06,3,7.52,3,7.52h2.26l9-1.22s2.32.47,2.32-.28V284.4c0-.75-11.28-23.31-11.28-23.31v-21.8c0-3.76-1.5-5.26-1.5-5.26s-8.27,4.51-21.05-3.76c0,0-8.27-4.51-9.77-5.26-.67-.34-6.77-3.76-9.77-3s-6,3.76-6,6.77a148.49,148.49,0,0,0,1.5,16.54c.75,3,4.51,17.29,4.51,17.29h12L347.28,243s12,4.51,12.78,4.51,6.77,1.5,6.77,1.5Z"/><path class="cls-18" d="M345,182.9l7.52,4.51s-3,12.78-2.26,15.79c0,0,3,3,9.77-2.26l.75,3,3-.75s1.5,1.5,2.26-1.5,5.26-12.78,5.26-12.78l6.77,4.51-6.05,16.14-.72,1.91,3.76-7.52,5.26,1.5s3,.75,1.5,4.51-2.26,5.26-2.26,5.26l.75,18a17.18,17.18,0,0,1-5.52,1.92c-2.75.33-8.64-1.17-8.64-1.17l-5.13-2.26-3.41-2,.14-16.8s-4.51,2.26-6,2.26-6,0-8.27-2.26-3.76-5.26-2.26-15S345,182.9,345,182.9Z"/><line class="cls-1" x1="375.85" y1="203.2" x2="371.33" y2="211.47"/><path class="cls-1" d="M345.77,182.9c-.75-2.26-5.26-10.53-5.26-10.53"/><polyline class="cls-1" points="349.53 179.14 352.54 181.4 354.04 181.4 355.55 181.4 352.54 186.66"/><path class="cls-1" d="M360.81,203.2c0-.75-1.5-6-1.5-6l-3.76,1.5s-1.5,0-.75-1.5,0-6,0-6v-3l3-3,3.76-.75a3,3,0,0,1,3.76,2.26c.75,3,1.5,5.26,2.26,6a3.71,3.71,0,0,1,.75,2.26l-2.26,1.5a2.33,2.33,0,0,1-1.5-.75c-.75-.75-1.5,1.5-.75-.75s.75-.75.75-2.26.75-1.5-.75-1.5h-2.26l-.75-3h-.75c-1.5,0-2.26,0-3,.75l-1.5,1.5"/><line class="cls-1" x1="369.08" y1="182.9" x2="371.33" y2="188.92"/><path class="cls-1" d="M372.84,182.15l3,5.26s-.75.75.75.75,1.5-.75,2.26-.75a17.06,17.06,0,0,0,3-.75s1.5.75.75,1.5-.75,1.5-1.5,2.26a30,30,0,0,1-3,2.26"/><path class="cls-19" d="M405.92,145.31c0,6.24-1.12,12.84-3.76,18-1,1.93,3,8.27,3,8.27-6,5.26-16.54,14.28-21.05,17.29,0,0-4.51-7.52-8.81-6a23.9,23.9,0,0,1-7.73.78,38.34,38.34,0,1,1,38.34-38.34Z"/><polygon class="cls-1" points="408.93 169.37 382.61 190.42 381.11 192.68 381.11 194.93 382.61 197.94 390.13 206.21 391.63 206.21 393.14 206.21 396.9 203.96 412.32 191.34 421.71 183.66 422.46 182.15 421.71 179.14 413.44 169.37 411.18 168.62 408.93 169.37"/><path class="cls-1" d="M404.41,198.69l.75.75a7.78,7.78,0,0,0,3,.75c1.5,0,3.76-1.5,3.76-1.5a5.25,5.25,0,0,0,1.5-3,7.78,7.78,0,0,0-.75-3l-.75-.75"/><path class="cls-1" d="M403.84,173.44,378.1,142.31a17.06,17.06,0,0,0-3-.75c-.75,0-5.26,1.5-3.76,5.26a11.76,11.76,0,0,0,3.76,5.26s1.5.75,2.26,0a2.33,2.33,0,0,0,.75-1.5l-.75-2.26-2.26-2.26-1.5-.75-1.5-.75-2.26.75-1.5.75-1.5,1.5-.75,3,.75,2.26,1.5,1.5,1.5.75,1.5.75,1.5-.75v-2.26l-1.5-1.5a3.71,3.71,0,0,1-.75-2.26l-2.26-.75h-2.26l-1.5.75-.75.75-1.5,2.26.75,4.51,3.76,4.51,20.3,24.81"/><rect class="cls-3" x="471.15" y="86.34" width="56.39" height="48.12"/><path class="cls-1" d="M510.25,67.17a12.41,12.41,0,0,1-24.81,0c0-6.85,8.27-19.17,12.78-19.17S510.25,60.32,510.25,67.17Z"/><path class="cls-1" d="M526.84,103.22a12.41,12.41,0,0,1-19.93-14.78C511,82.93,525,78,528.6,80.65S530.92,97.71,526.84,103.22Z"/><path class="cls-1" d="M493.59,98.48a12.41,12.41,0,0,1-17.5,1.24C470.91,95.23,467,80.91,470,77.5Z"/><line class="cls-1" x1="498.22" y1="48" x2="498.22" y2="134.46"/><line class="cls-1" x1="498.22" y1="102.13" x2="470.4" y2="77.32"/><line class="cls-1" x1="529.8" y1="81.08" x2="529.04" y2="81.83"/><line class="cls-1" x1="498.22" y1="112.66" x2="529.8" y2="81.08"/><line class="cls-1" x1="527.54" y1="99.88" x2="596.71" y2="99.88"/><line class="cls-1" x1="527.54" y1="108.9" x2="596.71" y2="108.9"/><line class="cls-1" x1="527.54" y1="118.67" x2="595.96" y2="118.67"/><line class="cls-1" x1="527.54" y1="129.2" x2="595.96" y2="129.2"/><path class="cls-1" d="M344.1,93.86H452.36s-3-17.29-15-19.55-19.55,1.5-19.55,1.5-6-16.54-23.31-19.55-27.82,2.26-27.82,2.26-14.28,6.77-18.8,18.8S344.1,91.61,344.1,93.86Z"/><path class="cls-17" d="M595.4,73.73H733.94A14.08,14.08,0,0,1,748,87.81v216a0,0,0,0,1,0,0H595.4a0,0,0,0,1,0,0V73.73A0,0,0,0,1,595.4,73.73Z"/><path class="cls-2" d="M724.71,96.28H683.46a22.65,22.65,0,0,0-22.65,22.65V144.4H748V85.75c0,.4,0,6.06-4.51,9-2.65,1.73-8.79,1.6-9.77,1.5"/><path class="cls-17" d="M660.81,327.09h106V143.65l-83.45.75c-15-.75-21.8-15.79-21.8-15.79Z"/><rect class="cls-20" x="616.45" y="126.35" width="4.51" height="24.06"/><circle class="cls-21" cx="618.82" cy="121.09" r="5.64" transform="translate(48.4 389.83) rotate(-36.3)"/><circle class="cls-22" cx="618.71" cy="155.67" r="7.52"/><circle class="cls-23" cx="650.28" cy="91.02" r="5.64"/><path class="cls-24" d="M645,88.76c0,.24,0,3.53,0,3.76,0,0-19.71-.28-19.84.15a7.14,7.14,0,1,1,0-4.17C625.36,89.17,645,88.76,645,88.76Z"/><circle class="cls-17" cx="682.99" cy="169.58" r="1.38" transform="matrix(0.14, -0.99, 0.99, 0.14, 418.52, 821.72)"/><circle class="cls-17" cx="698.77" cy="169.58" r="1.38" transform="translate(-8.66 40.8) rotate(-3.32)"/><circle class="cls-25" cx="714.56" cy="169.58" r="4.14"/><circle class="cls-17" cx="730.35" cy="169.58" r="1.38" transform="translate(141.61 633.87) rotate(-51.33)"/><circle class="cls-17" cx="746.14" cy="169.58" r="1.38" transform="translate(-17.83 126.77) rotate(-9.6)"/><circle class="cls-17" cx="746.14" cy="190.63" r="1.38" transform="translate(-9.8 43.58) rotate(-3.32)"/><circle class="cls-17" cx="730.35" cy="190.63" r="1.38" transform="translate(-9.82 42.67) rotate(-3.32)"/><circle class="cls-17" cx="714.56" cy="190.63" r="1.38" transform="translate(244.92 761.93) rotate(-65.52)"/><circle class="cls-17" cx="698.77" cy="190.63" r="1.38" transform="translate(-9.88 40.84) rotate(-3.32)"/><circle class="cls-17" cx="683.74" cy="190.63" r="1.38" transform="translate(461.78 864.86) rotate(-87.36)"/><circle class="cls-17" cx="683.74" cy="211.69" r="1.38"/><circle class="cls-17" cx="698.77" cy="211.69" r="1.38" transform="translate(328.24 840.81) rotate(-76.36)"/><circle class="cls-17" cx="730.35" cy="211.69" r="1.38"/><circle class="cls-17" cx="746.14" cy="211.69" r="1.38"/><circle class="cls-17" cx="746.14" cy="232.74" r="1.38" transform="translate(219.71 810.45) rotate(-64.98)"/><circle class="cls-17" cx="730.35" cy="232.74" r="1.38"/><circle class="cls-17" cx="714.56" cy="232.74" r="1.38"/><circle class="cls-17" cx="698.77" cy="232.74" r="1.38" transform="translate(-37.18 261.5) rotate(-20.66)"/><circle class="cls-25" cx="714.56" cy="210.93" r="4.14"/><circle class="cls-25" cx="682.99" cy="232.74" r="4.14"/><circle class="cls-17" cx="746.89" cy="253.79" r="1.38" transform="translate(-13.46 43.73) rotate(-3.32)"/><circle class="cls-17" cx="731.1" cy="253.79" r="1.38" transform="translate(-13.49 42.82) rotate(-3.32)"/><circle class="cls-17" cx="715.31" cy="253.79" r="1.38" transform="translate(187.89 799.59) rotate(-65.52)"/><circle class="cls-17" cx="699.53" cy="253.79" r="1.38" transform="translate(-13.54 40.99) rotate(-3.32)"/><circle class="cls-17" cx="684.49" cy="253.79" r="1.38" transform="translate(399.41 925.85) rotate(-87.36)"/><circle class="cls-17" cx="746.89" cy="274.09" r="1.38" transform="translate(-14.64 43.77) rotate(-3.32)"/><circle class="cls-17" cx="731.1" cy="274.09" r="1.38" transform="translate(-14.66 42.85) rotate(-3.32)"/><circle class="cls-17" cx="715.31" cy="274.09" r="1.38" transform="translate(169.42 811.48) rotate(-65.52)"/><circle class="cls-17" cx="699.53" cy="274.09" r="1.38" transform="translate(-14.72 41.02) rotate(-3.32)"/><circle class="cls-17" cx="684.49" cy="274.09" r="1.38" transform="translate(379.14 945.21) rotate(-87.36)"/><circle class="cls-17" cx="746.89" cy="294.39" r="1.38" transform="translate(-15.81 43.8) rotate(-3.32)"/><circle class="cls-17" cx="731.1" cy="294.39" r="1.38" transform="translate(-15.84 42.89) rotate(-3.32)"/><circle class="cls-17" cx="715.31" cy="294.39" r="1.38" transform="translate(150.94 823.37) rotate(-65.52)"/><circle class="cls-17" cx="699.53" cy="294.39" r="1.38" transform="translate(-15.89 41.06) rotate(-3.32)"/><circle class="cls-17" cx="684.49" cy="294.39" r="1.38" transform="translate(358.86 964.57) rotate(-87.36)"/><rect class="cls-24" x="617.95" y="179.73" width="42.1" height="8.27"/><rect class="cls-24" x="617.95" y="195.52" width="42.1" height="8.27"/><rect class="cls-24" x="617.95" y="211.31" width="42.1" height="8.27"/><rect class="cls-24" x="617.95" y="227.1" width="42.1" height="8.27"/><rect class="cls-24" x="617.95" y="242.89" width="42.1" height="8.27"/><path class="cls-1" d="M94.4,126a9.77,9.77,0,1,1,0-19.55"/><path class="cls-1" d="M94.4,136.2a19.92,19.92,0,0,1,0-39.85"/><path class="cls-1" d="M94.4,146a29.7,29.7,0,1,1,0-59.39"/><path class="cls-1" d="M94.4,155a38.72,38.72,0,1,1,0-77.44"/><path class="cls-25" d="M223.62,185.16s3.26-8.48,16.67-1.61"/><path class="cls-25" d="M255,130.93c-.53.1-7.88,12.14,5.19,16.27"/><path class="cls-25" d="M245.94,121.38S257.46,125,262.72,125s7.52-.75,8.27-3.76.75-4.51-6.77-8.27c-2.71-1.36-6.21-3.2-9.86-5.12l-1.19-.62c-6.1-3.19-12.41-6.44-16-7.79-6-2.26-30.07-9.77-40.6,5.26"/><path class="cls-25" d="M255.2,107s7.52,1.5,10.53-1.5,1.5-5.26,1.5-6.77c0-.55-4.72-2.3-10.92-4.34-10.78-3.55-26.06-8-28.93-8.44-4.51-.75-30.82-8.27-39.85,8.27"/><path class="cls-25" d="M256,95.69c2.26,4.51,2.26,7.52,9,9"/><path class="cls-1" d="M94.31,49.08v55.63l64.66-1.5L177.22,85.5,153.7,60.36s-6.77-9-28.57-11.28S94.31,49.08,94.31,49.08Z"/><path class="cls-25" d="M261.22,112.23s-3,8.27,8.27,9.77"/><path class="cls-25" d="M202.45,84.19s12.9-17.82,13.65-20.83,3-6.77,0-9-6.77,0-6.77,0L159,103.21l-64.66,1.5v74.43h57.14s39.09,1.5,51.12,2.26,26.31,6,27.82,6h7.52s2.26-1.5,2.26-2.26.75,1.5,0-2.26-40.6-28.57-40.6-28.57l.75-9s0-12.78,8.27-15.79,18,.75,18,.75,14.28,7.52,17.29,9.77a66.11,66.11,0,0,1,7.52,7.52s3.76,3,6,1.5,3.76-2.26,3.76-3.76.75-3.76-2.26-9-14.28-16.54-15-16.54-24.81-21.8-45.11,0"/><path class="cls-25" d="M203.33,61.11a4,4,0,0,0,3.76,3c3,0,3.76-3,6-4.51a12.15,12.15,0,0,0,3.6-4.72"/><circle class="cls-26" cx="253.7" cy="166.36" r="15.79"/><path class="cls-27" d="M620.56,445.67c-2.26-10.53,0-13.53,3-23.31s1.5-12.78,0-17.29-9.77-9.77-9.77-9.77-6-5.26-5.26-9.77,8.65-1.88,8.65-1.88c.75,0,2.26.75,12.78,6.77s11.28,20.3,11.28,21.05,0,9.77.75,18.8,5.26,24.81,5.26,24.81L668.3,516c-26.31,39.09-74.43,23.31-74.43,23.31L548.39,375.75s0-12,11.28,0,6,17.29,17.29,27.07S601,404.32,607,434.39"/><path class="cls-27" d="M620.56,428.37c-2.26-.75-18.19-8.47-18.19-8.47"/><path class="cls-27" d="M609.9,383.48c-.61-1-5.12-3.23-5.12-3.23s-9.77-3-16.54-1.5,0,9,0,9a84,84,0,0,0,14.28,6.77c8.27,3,8.95,29.6,8.95,29.6"/><path class="cls-27" d="M607,379.51s-6-2.26-9-3.76-16.54-4.51-16.54-4.51-5.26-1.5-8.27-.75-1.5,9-1.5,9,3.76,7.52,10.53,9.77A110.55,110.55,0,0,1,595,394.54l2.31,18.74"/><line class="cls-27" x1="582.22" y1="389.28" x2="584.38" y2="407.18"/><path class="cls-27" d="M596.18,375s-10.2-34.62-11-41.39a18.64,18.64,0,0,0-4.51-10.53s-5.26,0-7.52,6-2.63,33.41,1.32,41.14"/><circle class="cls-28" cx="555.16" cy="356.95" r="16.16"/><path class="cls-18" d="M581.37,494.32a171.26,171.26,0,0,0,30.1-5.54C627,484.38,633,482.9,639.75,478s12.08-9.7,12.08-9.7l16.47,46.91-7.06,9.49-9.32,7.76-9,4.86-8.13,2.8L624.84,542l-8.79.46-9.55-.6-6-.93-6.64-1.62Z"/><rect class="cls-1" x="493.42" y="146.16" width="89.99" height="157.63" rx="12" ry="12"/><circle class="cls-1" cx="587.82" cy="385.25" r="73.23"/></svg>